<?xml version="1.0" encoding="UTF-8" standalone="no"?>
<svg width="22px" height="22px" viewBox="0 0 22 22" version="1.1" xmlns="http://www.w3.org/2000/svg" xmlns:xlink="http://www.w3.org/1999/xlink">
    <!-- Generator: Sketch 45.1 (43504) - http://www.bohemiancoding.com/sketch -->
    <title>bootstrap</title>
    <desc>Created with Sketch.</desc>
    <defs></defs>
    <g id="Real.2017" stroke="none" stroke-width="1" fill="none" fill-rule="evenodd">
        <g id="Typography-Copy" transform="translate(-906.000000, -483.000000)" fill="#FFDD10">
            <path d="M921.76129,497.563226 C921.52172,498.051183 921.225161,498.427527 920.872043,498.692258 C920.51914,498.956989 920.076559,499.181505 919.544301,499.316774 C919.012688,499.452043 918.36043,499.544086 917.588602,499.544086 L912.688172,499.544086 L912.688172,487.4 L917.513978,487.4 C918.44043,487.4 919.183441,487.507312 919.743011,487.752473 C920.302796,487.997849 920.741075,488.367957 921.05828,488.877849 C921.375269,489.387957 921.533763,489.917634 921.533763,490.474409 C921.533763,490.992688 921.393118,491.478925 921.112043,491.936559 C920.830753,492.394624 920.406022,492.762796 919.838495,493.044086 C920.571613,493.25914 921.135484,493.625591 921.529677,494.143656 C921.924086,494.661935 922.121075,495.273978 922.121075,495.979785 C922.121075,496.547742 922.001075,497.075269 921.76129,497.563226 L921.76129,497.563226 Z M928,485.926022 C928,484.310108 926.690108,483 925.073978,483 L908.925806,483 C907.310108,483 906,484.310108 906,485.926022 L906,502.074194 C906,503.690108 907.310108,505.000215 908.925806,505.000215 L925.073978,505.000215 C926.690108,505.000215 928,503.690108 928,502.074194 L928,485.926022 Z M918.721505,492.343441 C919.129462,492.222366 919.436774,492.010753 919.643656,491.729677 C919.850538,491.448387 919.953978,491.090538 919.953978,490.666022 C919.953978,490.263656 919.857204,489.906667 919.664301,489.60043 C919.471398,489.294194 919.195699,489.175699 918.837204,489.062581 C918.47871,488.949677 917.864086,488.984086 916.992688,488.984086 L914.272043,488.984086 L914.272043,492.504086 L917.191398,492.504086 C917.902796,492.504086 918.412688,492.437204 918.721505,492.343441 L918.721505,492.343441 Z M919.147527,494.194194 C918.736774,494.05914 918.145376,494.087957 917.373333,494.087957 L914.272043,494.087957 L914.272043,498.136129 L917.588602,498.136129 C918.106667,498.136129 918.470538,498.080645 918.680215,498.041935 C919.049677,497.975699 919.358495,497.847527 919.606667,497.693118 C919.854839,497.538925 920.05871,497.304946 920.218925,497.010108 C920.37871,496.715054 920.45871,496.369892 920.45871,495.983871 C920.45871,495.532043 920.342796,495.184946 920.111183,494.851183 C919.87957,494.517419 919.55828,494.329247 919.147527,494.194194 L919.147527,494.194194 Z" id="bootstrap"></path>
        </g>
    </g>
</svg>