<?xml version="1.0" encoding="UTF-8" standalone="no"?>
<svg width="21px" height="23px" viewBox="0 0 21 23" version="1.1" xmlns="http://www.w3.org/2000/svg" xmlns:xlink="http://www.w3.org/1999/xlink">
    <!-- Generator: Sketch 45.1 (43504) - http://www.bohemiancoding.com/sketch -->
    <title>css3</title>
    <desc>Created with Sketch.</desc>
    <defs></defs>
    <g id="Real.2017" stroke="none" stroke-width="1" fill="none" fill-rule="evenodd">
        <g id="Typography" transform="translate(-753.000000, -1310.000000)" fill="#FFDD10">
            <g id="devicon" transform="translate(636.772766, 892.263672)">
                <path d="M132.741118,422.539761 L132.153051,429.140864 L132.154808,429.176498 L132.152172,429.258474 L132.152172,429.257772 L131.734534,433.873366 L131.688501,434.283422 L126.705479,435.660341 L126.705479,435.660517 L126.70179,435.663852 L121.727378,434.279209 L121.390561,430.463191 L123.829977,430.463191 L124.003041,432.403587 L126.706358,433.13558 L126.705479,433.136984 L126.705479,433.136633 L129.418987,432.394283 L129.705729,429.234426 L124.033437,429.234426 L123.984944,428.700264 L123.874078,427.448854 L123.815921,426.776895 L129.921312,426.776895 L130.143397,424.319364 L120.844311,424.319364 L120.795642,423.785554 L120.684951,422.533793 L120.626619,421.861834 L132.799274,421.861834 L132.741118,422.539761 Z M117,418 L118.766661,437.815245 L126.693883,440.023512 L134.643244,437.80717 L136.41131,418 L117,418 Z" id="css3"></path>
            </g>
        </g>
    </g>
</svg>