<?xml version="1.0" encoding="UTF-8" standalone="no"?>
<svg width="23px" height="23px" viewBox="0 0 23 23" version="1.1" xmlns="http://www.w3.org/2000/svg" xmlns:xlink="http://www.w3.org/1999/xlink">
    <!-- Generator: Sketch 45.1 (43504) - http://www.bohemiancoding.com/sketch -->
    <title>git</title>
    <desc>Created with Sketch.</desc>
    <defs></defs>
    <g id="Symbols" stroke="none" stroke-width="1" fill="none" fill-rule="evenodd">
        <g id="icon/deviconGroup" transform="translate(-191.000000, 0.000000)" fill="#FFDD10">
            <path d="M212.766438,10.0924638 L203.082394,0.417867971 C202.525074,-0.139289324 201.620572,-0.139289324 201.062374,0.417867971 L199.051841,2.42707477 L201.602651,4.975534 C202.195637,4.77559634 202.875244,4.90970729 203.347701,5.3817287 C203.822617,5.85673426 203.955973,6.54150761 203.75058,7.13587894 L206.208971,9.59235631 C206.803715,9.38750358 207.490174,9.51985916 207.964915,9.99521579 C208.62906,10.6582224 208.62906,11.733041 207.964915,12.3963987 C207.30077,13.059932 206.225311,13.059932 205.560815,12.3963987 C205.061476,11.8971689 204.937959,11.1642982 205.190967,10.5495645 L202.898436,8.25897042 L202.898085,14.2871174 C203.06008,14.3669872 203.212763,14.4737142 203.347701,14.6080007 C204.01167,15.2710074 204.01167,16.3454749 203.347701,17.0098858 C202.683731,17.6728925 201.60757,17.6728925 200.944303,17.0098858 C200.28051,16.3456504 200.226043,15.2711829 200.889661,14.6080007 C201.053764,14.4442239 201.215584,14.3204696 201.391284,14.2376158 L201.391284,8.15364768 C201.215584,8.07079379 201.05394,7.94791726 200.889485,7.78308718 C200.386808,7.28104878 200.292809,6.5437896 200.550736,5.92659835 L198.050001,3.41412438 L191.416632,10.0477016 C190.858785,10.6053855 190.862299,11.5090546 191.420146,12.0663875 L201.105772,21.7409833 C201.663267,22.2981406 202.568472,22.2981406 203.126846,21.7409833 L212.765735,12.1113252 C213.323582,11.5538168 213.324109,10.6496211 212.766438,10.0924638" id="git"></path>
        </g>
    </g>
</svg>