<?xml version="1.0" encoding="UTF-8" standalone="no"?>
<svg width="21px" height="23px" viewBox="0 0 21 23" version="1.1" xmlns="http://www.w3.org/2000/svg" xmlns:xlink="http://www.w3.org/1999/xlink">
    <!-- Generator: Sketch 45.1 (43504) - http://www.bohemiancoding.com/sketch -->
    <title>html5</title>
    <desc>Created with Sketch.</desc>
    <defs></defs>
    <g id="Real.2017" stroke="none" stroke-width="1" fill="none" fill-rule="evenodd">
        <g id="Typography" transform="translate(-717.000000, -1310.000000)" fill="#FFDD10">
            <g id="devicon" transform="translate(636.772766, 892.263672)">
                <path d="M96.6594174,422.6586 L96.5492537,423.917558 L96.5009362,424.494902 L87.247708,424.494902 L87.4683869,426.952433 L96.2809601,426.952433 L96.2217493,427.561725 L95.653712,433.901978 L95.6118954,434.300449 L90.6578648,435.660693 L90.6578648,435.661044 L90.6520667,435.664203 L85.7011987,434.361186 L85.365085,430.638729 L87.7923773,430.638729 L87.9645631,432.555427 L90.6503097,433.271797 L90.6578648,433.271797 L90.6578648,433.175954 L93.3557347,432.495744 L93.6375571,429.409963 L85.2572054,429.409963 L84.662813,422.718985 L84.6050078,422.037372 L96.7173984,422.037372 L96.6594174,422.6586 Z M81,418 L82.7578762,437.67657 L90.6460929,439.853415 L98.5560964,437.679027 L100.315905,418 L81,418 Z" id="html5"></path>
            </g>
        </g>
    </g>
</svg>