<?xml version="1.0" encoding="UTF-8" standalone="no"?>
<svg width="22px" height="22px" viewBox="0 0 22 22" version="1.1" xmlns="http://www.w3.org/2000/svg" xmlns:xlink="http://www.w3.org/1999/xlink">
    <!-- Generator: Sketch 45.1 (43504) - http://www.bohemiancoding.com/sketch -->
    <title>illustrator</title>
    <desc>Created with Sketch.</desc>
    <defs></defs>
    <g id="Real.2017" stroke="none" stroke-width="1" fill="none" fill-rule="evenodd">
        <g id="Typography-Copy" transform="translate(-868.000000, -483.000000)" fill="#FFDD10">
            <path d="M883.828591,490.669052 C883.188679,490.668192 882.730893,490.227608 882.726377,489.609413 C882.722077,488.992724 883.199,488.534077 883.844718,488.533432 C884.495596,488.532572 884.954028,488.976167 884.959188,489.610703 C884.963704,490.229543 884.493661,490.670127 883.828591,490.669052 L883.828591,490.669052 Z M882.842275,499.584815 L884.937256,499.584815 L884.937256,491.728692 L882.842275,491.728692 L882.842275,499.584815 Z M881.323129,499.584815 C881.037362,499.584815 880.75052,499.561592 880.466043,499.582235 C880.26091,499.597501 880.192317,499.511277 880.137701,499.333237 C879.873436,498.47228 879.592615,497.611968 879.32792,496.751226 C879.274809,496.577917 879.19869,496.514915 879.010974,496.517065 C878.046806,496.528246 877.081992,496.527171 876.117824,496.515775 C875.914626,496.51341 875.821306,496.567596 875.763249,496.769073 C875.517907,497.625085 875.249556,498.474215 875.001203,499.329581 C874.947447,499.514932 874.865738,499.579654 874.668776,499.574709 C874.089716,499.560087 873.509581,499.569118 872.875474,499.569118 C873.042763,499.037363 873.19457,498.545818 873.351538,498.056208 C874.314416,495.05361 875.280305,492.050798 876.235872,489.046265 C876.30253,488.837046 876.39542,488.772539 876.610014,488.77727 C877.288416,488.792321 877.967247,488.78114 878.646078,488.77727 C878.772943,488.77641 878.859812,488.783935 878.906043,488.928002 C880.0418,492.439991 881.181213,495.973269 882.319981,499.484829 C882.324927,499.50074 882.321702,499.584815 882.324282,499.584815 L881.323129,499.584815 Z M889.495768,483 L868.330078,483 C867.94841,483 868.003027,483.082999 868.003027,483.451336 L868.003027,504.644119 C868.003027,505.01181 867.94841,504.996758 868.3032,504.996758 L889.522646,504.996758 C889.877221,504.996758 890,505.01181 890,504.643904 L890,483.478214 C890,483.082999 889.877436,483 889.495768,483 L889.495768,483 Z M876.200393,494.87127 L878.883895,494.87127 C878.421808,493.300088 877.967032,491.8476 877.519352,490.371459 C877.085218,491.85276 876.644418,493.300088 876.200393,494.87127 L876.200393,494.87127 Z" id="illustrator"></path>
        </g>
    </g>
</svg>