<?xml version="1.0" encoding="UTF-8" standalone="no"?>
<svg width="23px" height="23px" viewBox="0 0 23 23" version="1.1" xmlns="http://www.w3.org/2000/svg" xmlns:xlink="http://www.w3.org/1999/xlink">
    <!-- Generator: Sketch 45.1 (43504) - http://www.bohemiancoding.com/sketch -->
    <title>javascript</title>
    <desc>Created with Sketch.</desc>
    <defs></defs>
    <g id="Real.2017" stroke="none" stroke-width="1" fill="none" fill-rule="evenodd">
        <g id="Typography" transform="translate(-636.000000, -1310.000000)" fill="#FFDD10">
            <g id="devicon" transform="translate(636.772766, 892.263672)">
                <path d="M20.1515334,436.116389 C19.4364353,438.560228 15.4494562,438.639571 13.8562107,437.024973 C13.51957,436.644934 13.3085546,436.4464 13.1077297,436.007731 C13.9544269,435.52114 13.9544269,435.52114 14.7782831,435.044906 C15.2257904,435.732136 15.6395634,436.11007 16.3840033,436.264718 C17.3939255,436.387946 18.4099973,436.041259 18.1821147,434.9696 C17.9479069,434.094368 16.1141284,433.88144 14.866133,432.945472 C13.599162,432.095342 13.3024051,430.029612 14.3434262,428.849295 C14.6904332,428.412733 15.28219,428.086934 15.903113,427.930355 L16.5510938,427.846623 C17.7952238,427.821521 18.572871,428.149777 19.1437195,428.786628 C19.3025521,428.947421 19.4322185,429.120853 19.6746842,429.496679 C19.0119447,429.918672 19.0140531,429.914635 18.0647472,430.528667 C17.8619897,430.092279 17.5255247,429.81844 17.1699083,429.699425 C16.6178597,429.532313 15.9217372,429.713995 15.777312,430.296781 C15.7272375,430.476356 15.7376038,430.643468 15.8171958,430.940127 C16.0408616,431.449714 16.791451,431.671243 17.4647325,431.980365 C19.4028767,432.765722 20.0573583,433.607777 20.2182993,434.610098 C20.3732665,435.473043 20.1808752,436.032833 20.1515334,436.116389 L20.1515334,436.116389 Z M11.6170929,436.697068 C11.2929268,437.35516 10.6742879,437.78751 9.9572572,437.996224 C8.85526826,438.248999 7.80142106,438.104882 7.0174487,437.634792 C6.49280919,437.313206 6.08307733,436.818189 5.8049446,436.247867 L7.47760639,435.224481 C7.49218947,435.230625 7.53611441,435.309968 7.59479813,435.412482 C7.80809765,435.769526 7.9920553,436.022301 8.35382112,436.199769 C8.70891035,436.320891 9.48884162,436.398303 9.78999102,435.773739 C9.97394868,435.456015 9.91544065,434.434736 9.91544065,433.304798 C9.91526495,431.529233 9.92352284,429.761039 9.92352284,428.00566 L11.9807914,428.00566 C11.9807914,429.936577 11.9913334,431.765331 11.9807914,433.649555 C11.9851839,434.804594 12.0855085,435.8343 11.6170929,436.697068 L11.6170929,436.697068 Z M0,439.942237 L21.9624709,439.942237 L21.9624709,418 L0,418 L0,439.942237 Z" id="javascript"></path>
            </g>
        </g>
    </g>
</svg>