<?xml version="1.0" encoding="UTF-8" standalone="no"?>
<svg width="29px" height="29px" viewBox="0 0 29 29" version="1.1" xmlns="http://www.w3.org/2000/svg" xmlns:xlink="http://www.w3.org/1999/xlink">
    <!-- Generator: Sketch 45.1 (43504) - http://www.bohemiancoding.com/sketch -->
    <title>graphic/linkedin</title>
    <desc>Created with Sketch.</desc>
    <defs></defs>
    <g id="Symbols" stroke="none" stroke-width="1" fill="none" fill-rule="evenodd">
        <g id="graphic/linkedin">
            <rect id="Path-Copy" x="0" y="0" width="29" height="29"></rect>
            <path d="M9.47935268,9.30747768 L9.47935268,22.0267857 L5.24386161,22.0267857 L5.24386161,9.30747768 L9.47935268,9.30747768 Z M9.74888393,5.38002232 C9.75744052,6.00465342 9.54138985,6.52659761 9.10072545,6.94587054 C8.66006104,7.36514347 8.08036074,7.57477679 7.36160714,7.57477679 L7.3359375,7.57477679 C6.63429709,7.57477679 6.06957059,7.36514347 5.64174107,6.94587054 C5.21391155,6.52659761 5,6.00465342 5,5.38002232 C5,4.74683463 5.2203289,4.22275133 5.6609933,3.8077567 C6.10165771,3.39276206 6.67707978,3.18526786 7.38727679,3.18526786 C8.09747379,3.18526786 8.66647852,3.39276206 9.09430804,3.8077567 C9.52213756,4.22275133 9.74032734,4.74683463 9.74888393,5.38002232 Z M16.0379464,11.1149278 C16.2009381,10.8580383 16.3677892,10.6320451 16.5385045,10.436942 C16.7181929,10.2315838 16.9599129,10.0091158 17.2636719,9.76953125 C17.5674308,9.52994672 17.9396369,9.34384367 18.3803013,9.21121652 C18.8209657,9.07858937 19.3108232,9.01227679 19.8498884,9.01227679 C21.3130654,9.01227679 22.4895789,9.49785601 23.3794643,10.469029 C24.2693497,11.440202 24.7142857,12.8627138 24.7142857,14.7366071 L24.7142857,22.0267857 L20.4916295,22.0267857 L20.4916295,15.2243304 C20.4916295,14.3258884 20.3183611,13.6221194 19.9718192,13.1130022 C19.6252773,12.6038851 19.0840811,12.3493304 18.3482143,12.3493304 C17.8091491,12.3493304 17.3577957,12.4969293 16.9941406,12.7921317 C16.6304855,13.0873341 16.3588179,13.4531228 16.1791295,13.8895089 C16.085007,14.1462066 16.0379464,14.4927434 16.0379464,14.9291295 L16.0379464,22.0267857 L11.8152902,22.0267857 C11.8324034,18.6127061 11.8409598,15.8446907 11.8409598,13.7226562 C11.8409598,11.6006218 11.8366816,10.3342654 11.828125,9.92354911 L11.8152902,9.30747768 L16.0379464,9.30747768 L16.0379464,11.1149278 L16.0379464,11.1149278 Z" id="" fill="#FF00FF"></path>
        </g>
    </g>
</svg>