<?xml version="1.0" encoding="UTF-8" standalone="no"?>
<svg width="29px" height="29px" viewBox="0 0 29 29" version="1.1" xmlns="http://www.w3.org/2000/svg" xmlns:xlink="http://www.w3.org/1999/xlink">
    <!-- Generator: Sketch 45.1 (43504) - http://www.bohemiancoding.com/sketch -->
    <title>graphic/mail</title>
    <desc>Created with Sketch.</desc>
    <defs></defs>
    <g id="Symbols" stroke="none" stroke-width="1" fill="none" fill-rule="evenodd">
        <g id="graphic/mail">
            <rect id="Path" x="0" y="0" width="29" height="29"></rect>
            <path d="M24.3571429,20.5892857 L24.3571429,10.7321429 C24.083332,11.0401801 23.788134,11.3225434 23.4715402,11.5792411 C21.178374,13.3418987 19.3558475,14.7879408 18.0039063,15.9174107 C17.5675201,16.2853441 17.212427,16.5719856 16.9386161,16.7773438 C16.6648052,16.9827019 16.2947382,17.1901961 15.828404,17.3998326 C15.3620698,17.6094691 14.9235512,17.7142857 14.5128348,17.7142857 L14.4871652,17.7142857 C14.0764488,17.7142857 13.6379302,17.6094691 13.171596,17.3998326 C12.7052618,17.1901961 12.3351948,16.9827019 12.0613839,16.7773438 C11.787573,16.5719856 11.4324799,16.2853441 10.9960938,15.9174107 C9.64415247,14.7879408 7.82162605,13.3418987 5.52845982,11.5792411 C5.21186598,11.3225434 4.91666804,11.0401801 4.64285714,10.7321429 L4.64285714,20.5892857 C4.64285714,20.7005214 4.68350034,20.7967816 4.76478795,20.8780692 C4.84607556,20.9593568 4.94233575,21 5.05357143,21 L23.9464286,21 C24.0576642,21 24.1539244,20.9593568 24.2352121,20.8780692 C24.3164997,20.7967816 24.3571429,20.7005214 24.3571429,20.5892857 Z M24.3571429,7.09988839 L24.3571429,6.78543527 C24.3571429,6.74693061 24.3550037,6.69131361 24.3507254,6.61858259 C24.3464472,6.54585157 24.3336125,6.49237368 24.312221,6.45814732 C24.2908295,6.42392096 24.2672992,6.38541688 24.2416295,6.34263393 C24.2159597,6.29985098 24.1774556,6.26776424 24.1261161,6.24637277 C24.0747765,6.22498129 24.0148813,6.21428571 23.9464286,6.21428571 L5.05357143,6.21428571 C4.94233575,6.21428571 4.84607556,6.25492891 4.76478795,6.33621652 C4.68350034,6.41750413 4.64285714,6.51376432 4.64285714,6.625 C4.64285714,8.06250719 5.2717571,9.2775248 6.52957589,10.2700893 C8.18099784,11.570691 9.89656848,12.9268903 11.6763393,14.3387277 C11.7276788,14.3815106 11.8774169,14.5077184 12.125558,14.7173549 C12.3736992,14.9269914 12.5704978,15.087425 12.7159598,15.1986607 C12.8614219,15.3098964 13.0518031,15.4446607 13.2871094,15.6029576 C13.5224156,15.7612545 13.7384663,15.8789059 13.9352679,15.9559152 C14.1320694,16.0329245 14.3160334,16.0714286 14.4871652,16.0714286 L14.5128348,16.0714286 C14.6839666,16.0714286 14.8679306,16.0329245 15.0647321,15.9559152 C15.2615337,15.8789059 15.4775844,15.7612545 15.7128906,15.6029576 C15.9481969,15.4446607 16.1385781,15.3098964 16.2840402,15.1986607 C16.4295022,15.087425 16.6263008,14.9269914 16.874442,14.7173549 C17.1225831,14.5077184 17.2723212,14.3815106 17.3236607,14.3387277 C19.1034315,12.9268903 20.8190022,11.570691 22.4704241,10.2700893 C22.93248,9.9021559 23.3624422,9.40802021 23.7603237,8.78766741 C24.1582051,8.16731461 24.3571429,7.60472723 24.3571429,7.09988839 Z M26,6.625 L26,20.5892857 C26,21.1540207 25.7989231,21.6374608 25.3967634,22.0396205 C24.9946036,22.4417803 24.5111635,22.6428571 23.9464286,22.6428571 L5.05357143,22.6428571 C4.48883646,22.6428571 4.00539636,22.4417803 3.60323661,22.0396205 C3.20107686,21.6374608 3,21.1540207 3,20.5892857 L3,6.625 C3,6.06026503 3.20107686,5.57682493 3.60323661,5.17466518 C4.00539636,4.77250543 4.48883646,4.57142857 5.05357143,4.57142857 L23.9464286,4.57142857 C24.5111635,4.57142857 24.9946036,4.77250543 25.3967634,5.17466518 C25.7989231,5.57682493 26,6.06026503 26,6.625 Z" id="" fill="#FF00FF"></path>
        </g>
    </g>
</svg>