<?xml version="1.0" encoding="UTF-8" standalone="no"?>
<svg width="19px" height="22px" viewBox="0 0 19 22" version="1.1" xmlns="http://www.w3.org/2000/svg" xmlns:xlink="http://www.w3.org/1999/xlink">
    <!-- Generator: Sketch 45.1 (43504) - http://www.bohemiancoding.com/sketch -->
    <title>nodejs</title>
    <desc>Created with Sketch.</desc>
    <defs></defs>
    <g id="Symbols" stroke="none" stroke-width="1" fill="none" fill-rule="evenodd">
        <g id="icon/deviconGroup" transform="translate(-155.000000, -1.000000)" fill="#FFDD10">
            <path d="M166.899794,14.6751046 C164.839187,14.6751046 164.38553,14.1072394 164.234428,13.083678 C164.216507,12.9734402 164.123035,12.8416112 164.010587,12.8416112 L163.003827,12.8416112 C162.879256,12.8416112 162.778931,12.9925738 162.778931,13.1165035 C162.778931,14.4270695 163.492097,16.0149853 166.899794,16.0149853 C169.366267,16.0149853 170.78065,15.0574261 170.78065,13.3627832 C170.78065,11.6825344 169.6444,11.2415832 167.252248,10.9252639 C164.834267,10.6059605 164.588639,10.4446412 164.588639,9.87870698 C164.588639,9.41212724 164.796668,8.78984538 166.587048,8.78984538 C168.186619,8.78984538 168.776267,9.13284644 169.018909,10.2101225 C169.039817,10.3114079 169.132411,10.3840806 169.236952,10.3840806 L170.247929,10.3840806 C170.310126,10.3840806 170.369337,10.3589787 170.412911,10.3145676 C170.455254,10.2668213 170.477392,10.2069629 170.471946,10.142716 C170.31487,8.28745592 169.081634,7.42293176 166.586873,7.42293176 C164.367433,7.42293176 163.043711,8.35925092 163.043711,9.92873528 C163.043711,11.6311018 164.360932,12.1015434 166.491292,12.3120133 C169.039817,12.5616282 169.238006,12.9337686 169.238006,13.4345782 C169.238006,14.304544 168.539073,14.6751046 166.899794,14.6751046 M173.040676,5.70318695 L165.284762,1.20853903 C164.796141,0.930486992 164.156066,0.930486992 163.66358,1.20853903 L155.847049,5.70318695 C155.342966,5.99300003 155,6.53769413 155,7.12030442 L155,16.0976637 C155,16.680274 155.35017,17.2251436 155.854428,17.5165365 L157.915211,18.690534 C158.903873,19.1771251 159.177789,19.1771251 159.62758,19.1771251 C161.091862,19.1771251 161.852115,18.2925896 161.852115,16.749787 L161.852115,7.88687843 C161.852291,7.76171991 161.930653,7.57547419 161.807487,7.57547419 L160.819703,7.57547419 C160.694605,7.57547419 160.446693,7.76171991 160.446693,7.88670289 L160.446693,16.7496115 C160.446693,17.4335071 159.811538,18.1140676 158.654379,17.5360212 L156.524547,16.304974 C156.450402,16.2646002 156.405598,16.1833262 156.405598,16.0976637 L156.405598,7.12030442 C156.405598,7.03569515 156.487123,6.95073481 156.562322,6.90737695 L164.359527,2.42045269 C164.432442,2.37920128 164.535578,2.37920128 164.608142,2.42045269 L172.332431,6.90632372 C172.4064,6.95073481 172.394453,7.03306208 172.394453,7.12030442 L172.394453,16.0976637 C172.394453,16.1833262 172.410793,16.2667067 172.337877,16.3079581 L164.583719,20.7975154 C164.517129,20.8373625 164.430861,20.8373625 164.357945,20.7975154 L162.369551,19.6128101 C162.309637,19.5780536 162.237425,19.5655904 162.179795,19.5977139 C161.62722,19.910698 161.524611,19.9523004 161.006297,20.1318757 C160.878387,20.1762868 160.690213,20.2533479 161.077982,20.4704883 L163.677987,22.0071471 C163.926778,22.1510882 164.209655,22.2258673 164.494464,22.2258673 C164.782963,22.2258673 165.065313,22.1510882 165.314279,22.0071471 L173.040852,17.5165365 C173.545286,17.2230372 173.800051,16.680274 173.800051,16.0976637 L173.800051,7.12030442 C173.799875,6.53769413 173.54511,5.99440433 173.040676,5.70318695" id="nodejs"></path>
        </g>
    </g>
</svg>