<?xml version="1.0" encoding="UTF-8" standalone="no"?>
<svg width="27px" height="20px" viewBox="0 0 27 20" version="1.1" xmlns="http://www.w3.org/2000/svg" xmlns:xlink="http://www.w3.org/1999/xlink">
    <!-- Generator: Sketch 45.1 (43504) - http://www.bohemiancoding.com/sketch -->
    <title>sass</title>
    <desc>Created with Sketch.</desc>
    <defs></defs>
    <g id="Symbols" stroke="none" stroke-width="1" fill="none" fill-rule="evenodd">
        <g id="icon/deviconGroup" transform="translate(-111.000000, -1.000000)" fill="#FFDD10">
            <path d="M130.12481,16.0957813 C130.03211,16.1489347 129.931119,16.1872051 129.83608,16.2363189 C129.749121,16.281393 129.720419,16.2358937 129.717867,16.1610537 C129.716166,16.110239 129.723608,16.0570856 129.73764,16.0077592 C129.914748,15.3831003 130.240684,14.8498653 130.725656,14.4161335 L130.759674,14.3986992 C130.99036,15.0439816 130.723742,15.7526229 130.12481,16.0957813 M125.935683,17.1263196 L127.247297,15.5948635 C127.301938,16.163605 126.335184,17.2989619 125.935683,17.1263196 M122.286383,12.4768845 C122.236418,12.7796463 122.17391,13.0826207 122.085463,13.3760275 C121.779724,14.3916829 121.387027,15.3758715 120.962437,16.346878 C120.883983,16.5265365 120.76981,16.6904616 120.670519,16.8607652 C120.655211,16.8871293 120.632461,16.9098789 120.610349,16.9317781 C120.487459,17.0531805 120.370946,17.0468021 120.308863,16.8879797 C120.236574,16.7034311 120.192138,16.505913 120.153868,16.3105211 C120.128142,16.1793384 120.134307,16.0415648 120.126228,15.907193 C120.13452,14.9517073 120.426013,14.0833931 120.920553,13.2750361 C121.124449,12.9416579 121.346418,12.6240131 121.685536,12.4131004 C121.789717,12.3482532 121.906655,12.2961629 122.024655,12.2629951 C122.205377,12.2121805 122.316361,12.2957376 122.286383,12.4768845 M116.937449,16.5971242 C116.866648,17.5451685 116.436956,18.3137668 115.734693,18.9362995 C115.339657,19.2862616 114.886577,19.5354448 114.35887,19.6230416 C114.167518,19.654721 113.971701,19.6623751 113.786089,19.5830702 C113.521385,19.4699598 113.462066,19.2350217 113.456963,18.9847755 C113.449097,18.5859123 113.588784,18.2253195 113.780349,17.8821611 C114.030382,17.434822 114.396928,17.0937897 114.78835,16.7752945 C115.404929,16.2733137 116.073812,15.8485116 116.758853,15.4475223 L116.810518,15.4262609 C116.9164,15.81747 116.966789,16.203789 116.937449,16.5971242 M111,9.32509981 C111,9.4745672 111.044011,9.57321993 111.068674,9.66910868 C111.22941,10.2927045 111.574907,10.827853 111.984826,11.316014 C112.568663,12.0116858 113.283683,12.5717101 114.016137,13.0983541 C114.651427,13.5550482 115.299686,14.0015369 115.937527,14.4548292 C116.047023,14.5326458 116.150566,14.6221561 116.269417,14.7176196 C116.167149,14.7728992 116.082104,14.8215877 115.993657,14.8664492 C115.151919,15.2933774 114.342074,15.7719707 113.595587,16.3517681 C113.145697,16.7013049 112.710689,17.072741 112.403463,17.5581379 C111.909136,18.3388552 111.734155,19.1705998 112.102614,20.058687 C112.210197,20.3180756 112.374335,20.5421704 112.605871,20.7077964 C112.680923,20.7613751 112.765118,20.8145285 112.852928,20.8353646 C113.077873,20.8883054 113.307071,20.9229614 113.53478,20.9648463 L114.179637,20.9644211 C114.892743,20.9008496 115.541853,20.6565565 116.128454,20.2517402 C117.045244,19.619002 117.662886,18.7706735 117.928441,17.681879 C118.121494,16.8905311 118.129361,16.0983326 117.901864,15.3105991 C117.880815,15.23746 117.854239,15.1658092 117.826599,15.0950089 C117.798959,15.0242085 117.766429,14.9553217 117.728159,14.867087 L119.19009,14.0264127 L119.211989,14.0451227 C119.185413,14.1320817 119.157135,14.218828 119.13311,14.3066375 C118.959404,14.9410766 118.843955,15.5865716 118.885415,16.245036 C118.929638,16.9466611 119.125456,17.6034246 119.536225,18.1896004 C119.868328,18.6637289 120.659676,18.6813758 121.012614,18.2055465 C121.137844,18.0365186 121.259246,17.8598367 121.350457,17.6712484 C121.588797,17.1790478 121.80949,16.67813 122.037199,16.1806141 L122.076958,16.0896155 C122.060587,16.3251914 122.041452,16.5320645 122.032735,16.7391502 C122.019127,17.0625355 122.03805,17.3840073 122.148609,17.6916593 C122.243222,17.954875 122.404171,18.1515426 122.705657,18.1861986 C122.911892,18.2097987 123.076242,18.1153983 123.227836,17.9956968 C123.464687,17.8088094 123.657103,17.577911 123.799979,17.3155457 C124.204158,16.5733115 124.61918,15.8355422 124.985513,15.0745979 C125.381825,14.2515705 125.728385,13.4045178 126.096419,12.5674579 L126.157227,12.4190535 C126.244186,12.7607237 126.30478,13.0953775 126.416403,13.4121719 C126.546097,13.7797809 126.70662,14.1386727 126.881389,14.4875717 C126.964095,14.6523472 126.954528,14.7592919 126.839929,14.8974908 C126.360273,15.4757999 125.888908,16.0611252 125.417119,16.6458128 C125.312725,16.7748692 125.208757,16.9062645 125.121798,17.0472273 C125.069283,17.1329106 125.034414,17.2373039 125.019744,17.3372323 C124.991466,17.5281594 125.109467,17.7122828 125.313788,17.7562938 C125.500463,17.7964778 125.699469,17.8113608 125.889546,17.7973283 C126.54801,17.7488523 127.14588,17.5177413 127.674438,17.126107 C128.359266,16.6188108 128.579109,15.9265408 128.41327,15.1060648 C128.368409,14.8834583 128.289104,14.6670176 128.211925,14.4524904 C128.177269,14.3557512 128.17493,14.2879275 128.238076,14.1977793 C128.785556,13.4159989 129.253306,12.5865931 129.688314,11.738052 C129.705536,11.7046717 129.723183,11.6712914 129.753374,11.6355723 C129.894337,12.3690893 130.106525,13.0760297 130.486678,13.7174851 C130.292775,13.9043725 130.100784,14.0738255 129.927079,14.2605003 C129.544587,14.6716951 129.21291,15.1181837 129.039842,15.6626873 C128.965428,15.8974127 128.908235,16.1359652 128.941615,16.3866367 C128.992855,16.7759323 129.311775,17.0289426 129.694905,16.9402827 C130.514105,16.7506313 131.221471,16.3645249 131.738335,15.6805468 C132.086171,15.2200257 132.11785,14.7063511 131.97221,14.168226 C131.932238,14.0219478 131.884826,13.8780084 131.833798,13.7102562 C132.035994,13.6475352 132.233087,13.5722699 132.436983,13.5257076 C133.495587,13.2841785 134.542709,13.326276 135.562829,13.7085553 C136.15836,13.9317996 136.639504,14.3053618 136.924832,14.8930259 C137.273306,15.6114474 137.080678,16.2930867 136.403503,16.7472295 C136.340357,16.7895396 136.268281,16.8229199 136.215765,16.8758607 C136.183661,16.9083906 136.164313,16.9734504 136.17218,17.0183119 C136.176645,17.0444633 136.245744,17.0772058 136.285715,17.0767806 C136.508109,17.0750797 136.688618,16.9583548 136.861898,16.8384407 C137.296055,16.5380176 137.61285,16.1338391 137.681099,15.6016672 L137.694706,15.5616958 L137.678122,15.2151356 C137.671531,15.1951499 137.683012,15.1753768 137.681524,15.1602812 C137.58925,14.3853045 137.175291,13.7842457 136.573169,13.3130939 C135.875796,12.7677399 135.052344,12.5432199 134.181478,12.5077134 C133.471774,12.478798 132.774188,12.5842543 132.105306,12.8272717 C131.914591,12.8963712 131.725578,12.9782274 131.5338,13.0554062 C131.508074,13.0088438 131.480434,12.9641949 131.457897,12.9180578 C131.260805,12.5149423 131.022252,12.1296864 130.969524,11.6674643 C130.932104,11.3391888 130.886179,11.0113386 130.964208,10.6866776 C131.039261,10.3743481 131.137063,10.067334 131.229125,9.75925687 C131.276538,9.60064709 131.243158,9.51177459 131.091777,9.4403364 C131.039048,9.41546061 130.981643,9.39377401 130.924662,9.38548208 C130.552588,9.33147822 130.185617,9.3623072 129.825237,9.46712572 C129.697669,9.50433311 129.604969,9.57577129 129.576692,9.71694675 C129.560533,9.79795255 129.527578,9.87555653 129.504616,9.95549926 C129.410428,10.2878144 129.343667,10.6265079 129.191436,10.9430896 C128.810007,11.7372016 128.374574,12.501335 127.928936,13.2599405 C127.880673,13.3417968 127.829858,13.4221647 127.769051,13.5214553 C127.612567,13.1940303 127.445665,12.9001982 127.395063,12.5557641 C127.33787,12.1662559 127.292796,11.7773856 127.389748,11.390854 C127.461824,11.1025499 127.556012,10.8195611 127.642758,10.5350841 C127.684005,10.3998618 127.66487,10.3288488 127.542404,10.2576232 C127.480534,10.2216915 127.410584,10.1897995 127.340847,10.1793814 C126.954953,10.1221884 126.5748,10.1521669 126.202513,10.2725062 C126.087064,10.3099262 126.026469,10.3845536 125.991175,10.5036172 C125.88742,10.854855 125.798973,11.2145973 125.653332,11.5486133 C125.063542,12.9008361 124.456743,14.2460426 123.850581,15.5910365 C123.724076,15.8718991 123.575884,16.1429815 123.433221,16.4164026 C123.397076,16.4857147 123.344348,16.5467348 123.299274,16.6117946 C123.26313,16.5690592 123.249097,16.5397186 123.24931,16.5103779 C123.250373,16.337523 123.229749,16.1595654 123.262704,15.992451 C123.36242,15.4868558 123.477232,14.9840245 123.598209,14.4831068 C123.698137,14.0693606 123.814437,13.6594415 123.925209,13.2484594 C123.962416,13.1108983 123.963054,12.9822671 123.864188,12.8666053 C123.698137,12.6729142 123.351152,12.6303915 123.145342,12.7796463 L123.054343,12.8313114 L123.07199,12.6843954 C123.115363,12.3699398 123.12408,12.0565473 123.037759,11.7467692 C122.930177,11.3606628 122.654629,11.1384816 122.254065,11.1508132 C122.067391,11.1565537 121.871361,11.1884458 121.698506,11.2564821 C120.97158,11.5413844 120.412619,12.0459166 119.936789,12.6529285 C119.893629,12.7079955 119.836648,12.7581723 119.775841,12.7919779 C119.160749,13.1330102 118.543745,13.4697902 117.926952,13.8078459 L117.240423,14.1839594 C117.0563,14.0083405 116.888973,13.8261306 116.699109,13.6715605 C116.119311,13.1987078 115.530159,12.7375488 114.946322,12.2700114 C114.42882,11.8556274 113.927477,11.4240217 113.543922,10.8752659 C113.258595,10.4670477 113.074684,10.0203464 113.057037,9.51560163 C113.034713,8.87244536 113.217135,8.28478125 113.54456,7.73772635 C113.963409,7.03780224 114.534702,6.47607699 115.162763,5.96729254 C115.82718,5.42938003 116.545814,4.97268592 117.2906,4.55575057 C118.332619,3.97255134 119.404405,3.45632542 120.553581,3.11550575 C121.731886,2.76596892 122.927413,2.56589948 124.160572,2.70537403 C124.645544,2.76022835 125.116058,2.87121267 125.548301,3.10827688 C125.879341,3.28963632 126.150848,3.52712576 126.277141,3.89834918 C126.401732,4.26361942 126.397905,4.63377977 126.311584,5.00479058 C126.136178,5.7561672 125.72477,6.37551074 125.207056,6.92894405 C124.357877,7.83616647 123.322024,8.4538091 122.155838,8.86181468 C121.482916,9.09717798 120.790646,9.24494446 120.079666,9.3046889 C119.499443,9.35337742 118.931339,9.30192492 118.381946,9.10015457 C118.018164,8.96642059 117.701369,8.76188627 117.446658,8.46507762 C117.401159,8.41192421 117.342903,8.35430591 117.25807,8.40405751 C117.174938,8.45295864 117.160268,8.53205092 117.18812,8.61220626 C117.234682,8.7453024 117.27763,8.8839265 117.350132,9.00299014 C117.532342,9.30171231 117.798109,9.51836561 118.090665,9.70418993 C118.652603,10.0615935 119.280664,10.1817202 119.931899,10.2095726 C120.920127,10.2523079 121.88433,10.104754 122.834926,9.83962482 C124.192039,9.46117254 125.372044,8.79271525 126.318388,7.73815158 C127.106334,6.86005723 127.669122,5.86906504 127.789674,4.67247546 C127.848568,4.08842578 127.785847,3.51628247 127.512426,2.98347268 C127.21583,2.40622664 126.744253,1.97695969 126.180402,1.68121411 C125.359288,1.25067149 124.473114,1 123.55845,1 L122.642085,1 C121.534368,1 120.463433,1.31743217 119.422477,1.69609707 C118.634531,1.98291287 117.861893,2.32139379 117.111792,2.69601903 C115.478281,3.51224281 113.957031,4.49643136 112.7075,5.8497172 C112.084967,6.52391506 111.557898,7.2678502 111.254711,8.14381841 C111.166051,8.40023046 111.081856,8.6751399 111.018497,8.94026911" id="sass"></path>
        </g>
    </g>
</svg>