<?xml version="1.0" encoding="UTF-8" standalone="no"?>
<svg width="29px" height="29px" viewBox="0 0 29 29" version="1.1" xmlns="http://www.w3.org/2000/svg" xmlns:xlink="http://www.w3.org/1999/xlink">
    <!-- Generator: Sketch 45.1 (43504) - http://www.bohemiancoding.com/sketch -->
    <title>graphic/twitter</title>
    <desc>Created with Sketch.</desc>
    <defs></defs>
    <g id="Symbols" stroke="none" stroke-width="1" fill="none" fill-rule="evenodd">
        <g id="graphic/twitter">
            <rect id="Path-Copy-2" x="0" y="0" width="29" height="29"></rect>
            <path d="M24.7924107,6.52232143 C24.2191192,7.36086729 23.5260457,8.07533187 22.7131696,8.66573661 C22.7217262,8.78552887 22.7260045,8.96521458 22.7260045,9.20479911 C22.7260045,10.3171559 22.5634317,11.4273568 22.2382813,12.5354353 C21.9131308,13.6435137 21.4189951,14.7066541 20.7558594,15.7248884 C20.0927236,16.7431227 19.30339,17.6436903 18.3878348,18.4266183 C17.4722796,19.2095463 16.368496,19.8341681 15.0764509,20.3005022 C13.7844057,20.7668364 12.4025371,21 10.9308036,21 C8.61196757,21 6.48996498,20.3796565 4.56473214,19.1389509 C4.86421281,19.1731773 5.19791483,19.1902902 5.56584821,19.1902902 C7.49108105,19.1902902 9.2066517,18.5998943 10.7126116,17.4190848 C9.81416961,17.4019716 9.00986218,17.1260257 8.29966518,16.5912388 C7.58946818,16.0564519 7.10174984,15.3740741 6.83649554,14.5440848 C7.11886302,14.5868678 7.37983511,14.6082589 7.61941964,14.6082589 C7.98735303,14.6082589 8.35100267,14.5611984 8.71037946,14.4670759 C7.75204134,14.2702743 6.95842948,13.7932516 6.32952009,13.0359933 C5.70061069,12.2787351 5.38616071,11.3995586 5.38616071,10.3984375 L5.38616071,10.3470982 C5.96800886,10.6722486 6.59263059,10.8476561 7.26004464,10.8733259 C6.69530968,10.4968359 6.24609542,10.0048393 5.91238839,9.39732143 C5.57868137,8.78980351 5.41183036,8.13095593 5.41183036,7.42075893 C5.41183036,6.66777897 5.60007252,5.97042732 5.9765625,5.32868304 C7.01190994,6.60361501 8.27184898,7.62397311 9.75641741,8.38978795 C11.2409858,9.15560279 12.8303487,9.58128677 14.5245536,9.66685268 C14.4561008,9.34170224 14.421875,9.02511315 14.421875,8.71707589 C14.421875,7.57049278 14.8261678,6.59291699 15.6347656,5.7843192 C16.4433634,4.9757214 17.4209392,4.57142857 18.5675223,4.57142857 C19.765445,4.57142857 20.7751075,5.00780814 21.5965402,5.88058036 C22.5292085,5.70089196 23.4062459,5.36718994 24.2276786,4.87946429 C23.9110847,5.86347218 23.3035759,6.6249973 22.4051339,7.1640625 C23.2008968,7.0784966 23.9966478,6.86458504 24.7924107,6.52232143 Z" id="" fill="#FF00FF"></path>
        </g>
    </g>
</svg>