<?xml version="1.0" encoding="UTF-8" standalone="no"?>
<svg width="44px" height="44px" viewBox="0 0 44 44" version="1.1" xmlns="http://www.w3.org/2000/svg" xmlns:xlink="http://www.w3.org/1999/xlink">
    <!-- Generator: Sketch 45.1 (43504) - http://www.bohemiancoding.com/sketch -->
    <title>bootstrap-blue</title>
    <desc>Created with Sketch.</desc>
    <defs></defs>
    <g id="Real.2017" stroke="none" stroke-width="1" fill="none" fill-rule="evenodd">
        <g id="ABOUT" transform="translate(-143.000000, -334.000000)" fill="#10069F">
            <path d="M174.522656,363.099407 C174.043584,364.074604 173.450112,364.826486 172.744352,365.355407 C172.03824,365.884327 171.15296,366.333065 170.088864,366.603152 C169.02512,366.873591 167.720608,367.057517 166.177088,367.057517 L156.376,367.057517 L156.376,342.791893 L166.02784,342.791893 C167.880768,342.791893 169.366912,343.006063 170.48592,343.495948 C171.605632,343.986535 172.482112,344.725758 173.116768,345.744914 C173.751072,346.76407 174.067872,347.822262 174.067872,348.934964 C174.067872,349.970649 173.786272,350.942329 173.22448,351.856686 C172.661632,352.771746 171.812256,353.507452 170.676704,354.06943 C172.143136,354.499177 173.270944,355.231366 174.059776,356.266699 C174.847904,357.302384 175.242144,358.525161 175.242144,359.93538 C175.242144,361.070238 175.002432,362.124562 174.522656,363.099407 L174.522656,363.099407 Z M187,339.846609 C187,336.617522 184.380064,334 181.148,334 L148.852,334 C145.620288,334 143,336.617522 143,339.846609 L143,372.112855 C143,375.341942 145.620288,377.959464 148.852,377.959464 L181.148,377.959464 C184.380064,377.959464 187,375.341942 187,372.112855 L187,339.846609 Z M168.443264,352.669409 C169.258848,352.427456 169.873792,352.004741 170.287392,351.443115 C170.701696,350.881138 170.907968,350.166181 170.907968,349.317587 C170.907968,348.513657 170.715072,347.800458 170.328576,347.188543 C169.942432,346.576627 169.391552,346.339949 168.67488,346.113822 C167.957856,345.888397 166.727968,345.956974 164.985568,345.956974 L159.544,345.956974 L159.544,352.990488 L165.382624,352.990488 C166.805408,352.990488 167.825504,352.856852 168.443264,352.669409 L168.443264,352.669409 Z M169.294752,356.36763 C168.473184,356.097543 167.290464,356.15557 165.746592,356.15557 L159.544,356.15557 L159.544,364.244111 L166.177088,364.244111 C167.213376,364.244111 167.941664,364.133333 168.360544,364.055965 C169.099392,363.923735 169.717504,363.667715 170.213472,363.358944 C170.70944,363.050876 171.117408,362.583499 171.437728,361.99409 C171.757696,361.404682 171.917856,360.715046 171.917856,359.943821 C171.917856,359.040717 171.685888,358.347213 171.222304,357.680436 C170.759424,357.013659 170.116672,356.637717 169.294752,356.36763 L169.294752,356.36763 Z" id="bootstrap-blue"></path>
        </g>
    </g>
</svg>