<?xml version="1.0" encoding="UTF-8" standalone="no"?>
<svg width="48px" height="54px" viewBox="0 0 48 54" version="1.1" xmlns="http://www.w3.org/2000/svg" xmlns:xlink="http://www.w3.org/1999/xlink">
    <!-- Generator: Sketch 45.1 (43504) - http://www.bohemiancoding.com/sketch -->
    <title>css3-blue</title>
    <desc>Created with Sketch.</desc>
    <defs></defs>
    <g id="Real.2017" stroke="none" stroke-width="1" fill="none" fill-rule="evenodd">
        <g id="ABOUT" transform="translate(-241.000000, -248.000000)" fill="#10069F">
            <path d="M279.556377,259.119715 L278.115962,275.288491 L278.120266,275.375773 L278.113811,275.576566 L278.113811,275.574847 L277.090845,286.880306 L276.978091,287.8847 L264.772653,291.257334 L264.772653,291.257764 L264.763615,291.265933 L252.579264,287.874381 L251.754264,278.527406 L257.729382,278.527406 L258.153286,283.280222 L264.774804,285.073169 L264.772653,285.076609 L264.772653,285.075749 L271.419131,283.257434 L272.121479,275.517661 L258.227739,275.517661 L258.108959,274.209283 L257.837402,271.144073 L257.694953,269.498173 L272.649531,269.498173 L273.193505,263.478685 L250.416275,263.478685 L250.297066,262.171166 L250.025939,259.105096 L249.883059,257.459196 L279.698826,257.459196 L279.556377,259.119715 Z M241,248 L245.327269,296.535565 L264.744249,301.944505 L284.215454,296.515787 L288.546166,248 L241,248 Z" id="css3-blue"></path>
        </g>
    </g>
</svg>