<?xml version="1.0" encoding="UTF-8" standalone="no"?>
<svg width="55px" height="55px" viewBox="0 0 55 55" version="1.1" xmlns="http://www.w3.org/2000/svg" xmlns:xlink="http://www.w3.org/1999/xlink">
    <!-- Generator: Sketch 45.1 (43504) - http://www.bohemiancoding.com/sketch -->
    <title>git-blue</title>
    <desc>Created with Sketch.</desc>
    <defs></defs>
    <g id="Real.2017" stroke="none" stroke-width="1" fill="none" fill-rule="evenodd">
        <g id="ABOUT" transform="translate(-334.000000, -427.000000)" fill="#10069F">
            <path d="M387.314828,451.720534 L363.59468,428.023528 C362.229578,426.658824 360.014085,426.658824 358.646831,428.023528 L353.722223,432.94489 L359.970188,439.187099 C361.422653,438.697371 363.087285,439.025863 364.244523,440.182035 C365.407786,441.345516 365.734429,443.022803 365.231338,444.47866 L371.252935,450.495568 C372.709703,449.993801 374.391119,450.317993 375.553952,451.482334 C377.180712,453.106306 377.180712,455.738973 375.553952,457.363805 C373.927191,458.989066 371.292958,458.989066 369.665337,457.363805 C368.442254,456.140988 368.139711,454.345891 368.759429,452.840159 L363.144093,447.229566 L363.143232,461.994941 C363.540024,462.190574 363.914007,462.451992 364.244523,462.780914 C365.870853,464.404886 365.870853,467.036692 364.244523,468.664104 C362.618193,470.288076 359.982238,470.288076 358.357629,468.664104 C356.73173,467.037122 356.598318,464.405316 358.223788,462.780914 C358.625744,462.379758 359.022105,462.076634 359.452465,461.873691 L359.452465,446.971588 C359.022105,446.768645 358.626174,446.467671 358.223357,446.063935 C356.992097,444.834239 356.761855,443.028393 357.393623,441.516641 L351.26831,435.362574 L335.020501,451.610893 C333.654108,452.976887 333.662716,455.190339 335.029108,456.555473 L358.75313,480.252479 C360.118662,481.617183 362.335877,481.617183 363.703561,480.252479 L387.313107,456.665544 C388.6795,455.29998 388.680791,453.085238 387.314828,451.720534" id="git-blue"></path>
        </g>
    </g>
</svg>