<?xml version="1.0" encoding="UTF-8" standalone="no"?>
<svg width="32px" height="71px" viewBox="0 0 32 71" version="1.1" xmlns="http://www.w3.org/2000/svg" xmlns:xlink="http://www.w3.org/1999/xlink">
    <!-- Generator: Sketch 45.1 (43504) - http://www.bohemiancoding.com/sketch -->
    <title>gulp-blue</title>
    <desc>Created with Sketch.</desc>
    <defs></defs>
    <g id="Real.2017" stroke="none" stroke-width="1" fill="none" fill-rule="evenodd">
        <g id="ABOUT" transform="translate(-149.000000, -412.000000)" fill="#10069F">
            <path d="M169.315185,430.143456 C167.891001,431.293383 166.714051,431.293383 165.577348,430.143456 L169.315185,430.143456 Z M171.325258,431.723456 C173.833249,431.481396 176.310766,430.892634 178.791159,430.406214 C179.258604,430.314795 179.673728,429.958893 180.113,429.724883 C179.534012,429.21604 179.033219,428.971106 178.510002,428.909584 C175.905417,428.601979 173.291633,428.365094 170.688773,428.042539 C170.295498,427.993668 169.593468,427.508398 169.622791,427.419854 C170.382318,425.131499 170.344945,422.541289 172.068686,420.612861 C174.247222,418.175016 176.448183,415.758444 178.632469,413.340723 C177.007622,411.592834 176.985774,411.590534 175.513292,413.120512 C174.680745,413.985257 173.920068,414.931647 173.0168,415.714747 C169.674538,418.611413 167.326962,422.04222 166.869291,426.565458 C166.764072,427.603267 166.194284,427.978144 165.104728,427.994243 C161.507756,428.046564 157.90676,428.145458 154.317837,428.381768 C152.539475,428.498486 150.782962,428.955007 149.016099,429.257437 L149,429.91807 C150.105655,430.259024 151.190036,430.70692 152.319264,430.923682 C158.611665,432.129955 164.963287,432.336942 171.325258,431.723456 L171.325258,431.723456 Z M153.506564,466.267263 C154.010807,467.599453 154.776658,468.90807 154.977321,470.298332 C155.401069,473.257669 155.508587,476.261854 155.808718,479.241314 C155.852415,479.675412 156.133572,480.271649 156.4843,480.462537 C161.647472,483.268359 166.860666,483.754778 172.128482,480.686198 C172.914457,480.228527 173.059923,479.62424 173.161691,478.774444 C173.654435,474.645631 172.557405,470.266134 175.197062,466.378231 C167.805331,468.21179 160.591264,468.268711 153.506564,466.267263 L153.506564,466.267263 Z M149.012649,430.982328 C149.516892,436.290391 150.01711,441.568556 150.528828,446.965163 C151.3631,445.530629 151.966812,444.154742 152.877554,443.027813 C153.725625,441.97793 154.794482,441.009116 155.957633,440.338134 C157.476112,439.46189 159.467211,440.286962 159.959379,441.841089 C160.091621,442.257937 159.775966,442.816802 159.665573,443.310695 C159.294147,443.114633 158.815202,443.00654 158.572567,442.706409 C157.541658,441.431715 156.920697,441.281074 155.780545,442.382704 C153.653755,444.438774 152.457831,447.01461 152.001309,449.909551 C151.91334,450.469566 152.263493,451.098001 152.411258,451.694813 C152.992547,451.494726 153.667554,451.42113 154.137299,451.071553 C155.664402,449.93485 156.610792,448.388773 157.132859,446.54084 C157.246127,446.140666 157.860188,445.882507 158.244263,445.558803 C158.428252,445.937129 158.847975,446.382725 158.760005,446.682281 C157.951032,449.465105 157.073063,452.230104 156.151971,454.97843 C156.058827,455.256712 155.547684,455.395278 155.22973,455.598815 C155.101513,455.233138 154.831855,454.850213 154.874977,454.50581 C154.971571,453.725009 155.22283,452.963183 155.398194,452.247928 L151.235458,454.164281 C151.468318,456.821763 151.709803,459.802948 151.996135,462.780109 C152.215771,465.053515 152.587772,465.642278 154.82668,466.0735 C157.439314,466.576593 160.10082,466.897998 162.756577,467.093486 C166.680703,467.382692 170.570331,467.025065 174.388088,465.998755 C175.809398,465.616979 176.376312,464.682089 176.478081,463.286652 C176.571225,462.001609 176.779362,460.724615 176.923677,459.443021 C177.207134,456.918356 177.482542,454.393117 177.772324,451.762659 C176.813859,452.36982 176.060082,453.049427 175.178663,453.337484 C174.537004,453.547345 173.727455,453.240315 172.992077,453.16327 C173.132943,452.488263 173.124319,451.727586 173.449748,451.158372 C173.979864,450.228081 174.728467,449.421407 175.383925,448.562412 L175.101618,448.222608 C174.631873,448.500316 174.048285,448.682579 173.714231,449.076429 C173.034624,449.877928 172.369392,450.735774 171.914595,451.675264 C171.153344,453.247789 170.573206,454.907709 169.891874,456.519907 C169.595768,457.219062 169.340484,458.288495 168.348672,457.88027 C167.287864,457.442723 168.034167,456.508408 168.283126,455.84375 C168.679276,454.783517 169.202493,453.770431 169.55667,452.990781 C168.552784,453.110373 167.535098,453.254689 166.512813,453.343808 C166.080441,453.380606 165.566423,453.143721 165.212821,453.303561 C164.03702,453.834827 163.291868,453.621516 163.047508,452.319798 C162.503018,452.673401 162.041897,453.152346 161.498557,453.281137 C160.839073,453.438102 159.94443,453.541021 159.461461,453.211567 C159.07451,452.947659 158.933644,451.955846 159.065886,451.373983 C159.328644,450.217157 159.819663,449.105177 160.285959,448.005272 C160.57459,447.323941 160.864947,446.23611 161.838935,446.709879 C162.801424,447.177325 161.927479,447.966175 161.705543,448.59921 C161.36114,449.577797 161.010413,450.55466 160.663135,451.532098 L161.2151,451.865577 C161.740616,451.409056 162.3955,451.037055 162.763476,450.47704 C163.366038,449.561698 163.72999,448.492266 164.300354,447.552776 C164.536664,447.163526 165.045506,446.94044 165.431307,446.642034 C165.509502,447.137652 165.69694,447.64707 165.634844,448.12544 C165.573323,448.608984 165.23352,449.051131 165.070805,449.529501 C164.826445,450.245905 164.629233,450.978409 164.380849,451.811531 C165.555499,451.856378 166.058592,451.361909 166.390346,450.48969 C167.440229,447.733889 168.501612,444.980964 169.655564,442.267711 C169.852776,441.803141 170.523184,441.540958 170.97568,441.18448 C171.028002,441.744495 171.277536,442.379254 171.099872,442.851299 C170.154057,445.351816 169.0921,447.807485 168.093963,450.288452 C167.925499,450.706451 167.871452,451.170446 167.765084,451.613168 C169.523897,450.822593 170.991779,449.948649 171.527645,448.079443 C171.658737,447.625221 172.195753,447.287718 172.545905,446.896168 L173.360054,447.758613 C173.607288,447.550476 173.833824,447.313591 174.102332,447.140527 C174.947528,446.596037 175.857695,446.115942 176.748889,446.959414 C177.67113,447.831633 176.973124,448.681429 176.491305,449.435781 C175.966938,450.258554 175.324704,451.005432 174.733641,451.785082 C176.062957,450.928387 177.878117,450.544311 178.119602,448.692929 C178.708364,444.170841 179.225831,439.639553 179.750773,435.109416 C179.906588,433.768601 179.989958,432.419162 180.111275,431.022 C169.64119,433.557014 159.395915,433.572538 149.012649,430.982328 L149.012649,430.982328 Z" id="gulp-blue"></path>
        </g>
    </g>
</svg>