<?xml version="1.0" encoding="UTF-8" standalone="no"?>
<svg width="48px" height="54px" viewBox="0 0 48 54" version="1.1" xmlns="http://www.w3.org/2000/svg" xmlns:xlink="http://www.w3.org/1999/xlink">
    <!-- Generator: Sketch 45.1 (43504) - http://www.bohemiancoding.com/sketch -->
    <title>html5-blue</title>
    <desc>Created with Sketch.</desc>
    <defs></defs>
    <g id="Real.2017" stroke="none" stroke-width="1" fill="none" fill-rule="evenodd">
        <g id="ABOUT" transform="translate(-141.000000, -248.000000)" fill="#10069F">
            <path d="M179.35626,259.4108 L179.086424,262.494498 L178.968075,263.908648 L156.303169,263.908648 L156.843701,269.928136 L178.429264,269.928136 L178.284233,271.42054 L176.892879,286.95039 L176.790454,287.926407 L164.656025,291.258194 L164.656025,291.259054 L164.641823,291.266793 L152.515141,288.075174 L151.691862,278.957369 L157.637285,278.957369 L158.059038,283.65214 L164.63752,285.406821 L164.656025,285.406821 L164.656025,285.172061 L171.264202,283.505952 L171.954499,275.947625 L151.427621,275.947625 L149.971714,259.558708 L149.830125,257.88916 L179.498279,257.88916 L179.35626,259.4108 Z M141,248 L145.305751,296.195894 L164.627191,301.527871 L184.001995,296.201914 L188.31248,248 L141,248 Z" id="html5-blue"></path>
        </g>
    </g>
</svg>