<?xml version="1.0" encoding="UTF-8" standalone="no"?>
<svg width="54px" height="54px" viewBox="0 0 54 54" version="1.1" xmlns="http://www.w3.org/2000/svg" xmlns:xlink="http://www.w3.org/1999/xlink">
    <!-- Generator: Sketch 45.1 (43504) - http://www.bohemiancoding.com/sketch -->
    <title>illustrator-blue</title>
    <desc>Created with Sketch.</desc>
    <defs></defs>
    <g id="Real.2017" stroke="none" stroke-width="1" fill="none" fill-rule="evenodd">
        <g id="ABOUT" transform="translate(-464.000000, -248.000000)" fill="#10069F">
            <path d="M502.850375,266.823252 C501.279747,266.821141 500.156136,265.739751 500.145053,264.222428 C500.134498,262.708799 501.30508,261.583077 502.889957,261.581494 C504.487501,261.579383 505.612695,262.668161 505.625361,264.225595 C505.636444,265.744501 504.482751,266.825891 502.850375,266.823252 L502.850375,266.823252 Z M500.429519,288.706483 L505.571529,288.706483 L505.571529,269.424076 L500.429519,269.424076 L500.429519,288.706483 Z M496.700862,288.706483 C495.999463,288.706483 495.295425,288.649484 494.597192,288.70015 C494.093705,288.737621 493.925348,288.525988 493.791296,288.088998 C493.142673,285.975829 492.453412,283.864243 491.803734,281.751601 C491.673376,281.326223 491.486548,281.171588 491.025809,281.176866 C488.659313,281.204309 486.291233,281.201671 483.924736,281.173699 C483.425999,281.167894 483.196949,281.30089 483.054453,281.795406 C482.452273,283.896437 481.793623,285.980579 481.184055,288.080026 C481.052114,288.53496 480.851563,288.693817 480.368131,288.681678 C478.946861,288.64579 477.522952,288.667956 475.966574,288.667956 C476.377175,287.362794 476.749777,286.156325 477.135045,284.954605 C479.498375,277.5849 481.869093,270.214667 484.214479,262.840213 C484.378086,262.326698 484.606081,262.168368 485.13279,262.179979 C486.797887,262.216923 488.46404,262.189479 490.130193,262.179979 C490.441574,262.177868 490.654791,262.19634 490.76826,262.549942 C493.555912,271.169921 496.352537,279.842149 499.147578,288.461073 C499.159717,288.500127 499.1518,288.706483 499.158134,288.706483 L496.700862,288.706483 Z M516.760138,248 L464.810158,248 C463.873376,248 464.007428,248.203717 464.007428,249.107778 L464.007428,301.124256 C464.007428,302.026734 463.873376,301.98979 464.744188,301.98979 L516.826109,301.98979 C517.696393,301.98979 517.997746,302.026734 517.997746,301.123728 L517.997746,249.173748 C517.997746,248.203717 517.696921,248 516.760138,248 L516.760138,248 Z M484.127398,277.137355 L490.7139,277.137355 C489.579734,273.28098 488.463512,269.71593 487.364706,266.092826 C486.299149,269.728596 485.217232,273.28098 484.127398,277.137355 L484.127398,277.137355 Z" id="illustrator-blue"></path>
        </g>
    </g>
</svg>