<?xml version="1.0" encoding="UTF-8" standalone="no"?>
<svg width="54px" height="54px" viewBox="0 0 54 54" version="1.1" xmlns="http://www.w3.org/2000/svg" xmlns:xlink="http://www.w3.org/1999/xlink">
    <!-- Generator: Sketch 45.1 (43504) - http://www.bohemiancoding.com/sketch -->
    <title>javascript-blue</title>
    <desc>Created with Sketch.</desc>
    <defs></defs>
    <g id="Real.2017" stroke="none" stroke-width="1" fill="none" fill-rule="evenodd">
        <g id="ABOUT" transform="translate(-334.000000, -248.000000)" fill="#10069F">
            <path d="M383.359272,292.374379 C381.607707,298.36033 371.84198,298.554674 367.939476,294.59987 C367.114906,293.668999 366.598044,293.18271 366.106142,292.108231 C368.180047,290.916373 368.180047,290.916373 370.198005,289.749882 C371.294131,291.433189 372.307629,292.3589 374.131064,292.737698 C376.604773,293.039532 379.093545,292.190354 378.535368,289.565428 C377.961698,287.42163 373.470031,286.900084 370.413185,284.607519 C367.309859,282.525206 366.582981,277.465396 369.132864,274.574322 C369.982825,273.505002 371.432277,272.70699 372.953169,272.323463 L374.540336,272.11837 C377.587715,272.056886 379.492488,272.860917 380.890728,274.420825 C381.279773,274.814671 381.597379,275.239475 382.191275,276.160027 C380.567958,277.193659 380.573122,277.18377 378.247887,278.687782 C377.751252,277.618893 376.927113,276.94815 376.056064,276.656635 C374.703873,276.247309 372.998787,276.692322 372.645031,278.1198 C372.522379,278.559653 372.54777,278.968978 372.742723,279.695616 C373.290571,280.9438 375.129069,281.486414 376.778208,282.24358 C381.525509,284.167236 383.128599,286.229771 383.522809,288.684862 C383.902387,290.798563 383.431142,292.169716 383.359272,292.374379 L383.359272,292.374379 Z M362.454969,293.796698 C361.660955,295.408631 360.145657,296.467631 358.389358,296.978857 C355.690141,297.598005 353.108842,297.245005 351.188576,296.093563 C349.903521,295.30587 348.899922,294.093373 348.218662,292.696421 L352.315689,290.189734 C352.351408,290.204783 352.458998,290.399127 352.602739,290.650225 C353.125196,291.524771 353.575782,292.143918 354.461894,292.578611 C355.331651,292.875286 357.242019,293.0649 357.979656,291.53509 C358.430243,290.756856 358.286933,288.255329 358.286933,285.487654 C358.286502,281.138574 358.306729,276.807552 358.306729,272.507917 L363.345814,272.507917 C363.345814,277.237515 363.371635,281.716875 363.345814,286.332102 C363.356573,289.161262 363.602308,291.683428 362.454969,293.796698 L362.454969,293.796698 Z M334,301.745432 L387.794992,301.745432 L387.794992,248 L334,248 L334,301.745432 Z" id="javascript-blue"></path>
        </g>
    </g>
</svg>