<?xml version="1.0" encoding="UTF-8" standalone="no"?>
<svg width="54px" height="52px" viewBox="0 0 54 52" version="1.1" xmlns="http://www.w3.org/2000/svg" xmlns:xlink="http://www.w3.org/1999/xlink">
    <!-- Generator: Sketch 45.1 (43504) - http://www.bohemiancoding.com/sketch -->
    <title>jquery-blue</title>
    <desc>Created with Sketch.</desc>
    <defs></defs>
    <g id="Real.2017" stroke="none" stroke-width="1" fill="none" fill-rule="evenodd">
        <g id="ABOUT" transform="translate(-334.000000, -328.000000)" fill="#10069F">
            <path d="M371.769237,347.563767 C371.915129,347.617513 372.061021,347.665669 372.208635,347.715974 L372.403158,347.777459 C372.611452,347.842814 372.818455,347.918917 373.034065,347.959764 C382.82045,349.849023 385.475341,342.94252 386.181561,341.925657 C383.856327,345.270342 379.949089,346.073084 375.154449,344.910463 C374.775732,344.818881 374.359144,344.682152 373.994198,344.552733 C373.525967,344.385907 373.064621,344.195864 372.616616,343.981312 C371.764934,343.572417 370.953275,343.076669 370.201006,342.509117 C365.911178,339.256443 363.245959,333.052501 366.04545,328 L364.530583,330.085753 C362.507031,333.0611 362.308205,336.756206 363.712469,340.041987 C365.193338,343.52985 368.227806,346.265708 371.769237,347.563767 M353.088604,353.668819 C353.602884,354.405346 354.173111,355.281611 354.855231,355.873241 C355.102258,356.145408 355.361334,356.411125 355.625575,356.672113 L355.828705,356.872046 C356.0852,357.120565 356.345998,357.364784 356.615403,357.602124 L356.64725,357.629642 L356.654996,357.637381 C356.953236,357.898799 357.260943,358.149468 357.573815,358.397127 L357.782109,358.559653 C358.095841,358.800002 358.415599,359.035622 358.742672,359.260923 L358.771076,359.281991 C358.915677,359.381743 359.063291,359.474615 359.209613,359.570927 L359.417477,359.708085 C359.651593,359.858143 359.889151,360.00433 360.130153,360.144498 L360.230427,360.202973 C360.438721,360.322503 360.649597,360.440313 360.860043,360.554683 L361.084691,360.671203 C361.230583,360.747307 361.376475,360.82513 361.52538,360.899084 L361.592086,360.929181 C361.894198,361.077949 362.199324,361.221557 362.511334,361.356995 L362.714464,361.440408 C362.963212,361.546179 363.214973,361.64937 363.467594,361.745682 L363.790364,361.863922 C364.019746,361.949055 364.249989,362.026448 364.481953,362.104272 L364.795255,362.204453 C365.125341,362.306784 365.451554,362.436203 365.795411,362.493389 C383.518924,365.427029 387.610356,351.793318 387.610356,351.793318 C383.922172,357.100357 376.779057,359.632842 369.156953,357.65587 C368.818259,357.566867 368.48473,357.470555 368.152923,357.366074 L367.851241,357.268473 C367.615834,357.192369 367.381718,357.111536 367.149324,357.026833 L366.832579,356.909023 C366.577806,356.810991 366.326475,356.71038 366.076436,356.604609 L365.873306,356.518616 C365.560435,356.382748 365.251867,356.23914 364.948893,356.089083 C364.792242,356.012979 364.638604,355.932576 364.484965,355.853463 L364.217281,355.715875 C364.020176,355.609244 363.823932,355.498313 363.630701,355.384803 L363.490403,355.305259 C363.250262,355.165521 363.014425,355.021054 362.780309,354.871856 L362.56599,354.729108 C362.411921,354.629357 362.256992,354.527456 362.105935,354.425124 C361.779292,354.199823 361.461687,353.964203 361.147954,353.725144 L360.932344,353.555308 C357.595763,350.923932 354.951632,347.326857 353.69412,343.248654 C352.375928,339.019533 352.660826,334.271877 354.943455,330.418544 L352.138799,334.374208 C348.705818,339.309329 348.892594,345.916147 351.569863,351.135474 C352.018729,352.011739 352.523971,352.860917 353.088604,353.668819 M361.357539,372.256569 C361.001201,372.176166 360.654762,372.064805 360.307031,371.962044 L360.044942,371.882501 C359.704957,371.778449 359.367985,371.668809 359.032735,371.553579 L358.893729,371.503273 C358.593338,371.397932 358.295959,371.286571 358.001162,371.172631 L357.750693,371.074169 C357.427062,370.94647 357.105153,370.813181 356.787117,370.673873 L356.595176,370.588741 C356.321467,370.464911 356.051632,370.340222 355.782226,370.210803 L355.54725,370.098152 C355.335513,369.995391 355.126788,369.88618 354.918494,369.778689 C354.779057,369.705166 354.636608,369.635942 354.498893,369.559408 C354.24412,369.42311 353.994081,369.281652 353.745333,369.137184 L353.49099,368.995296 C353.160043,368.800952 352.83297,368.5993 352.50977,368.394637 L352.245098,368.218352 C352.010122,368.067435 351.776867,367.913508 351.546624,367.754421 L351.321546,367.596625 C351.09948,367.439688 350.879996,367.281032 350.661374,367.119795 L350.368729,366.898794 C350.169472,366.746157 349.970216,366.59223 349.773541,366.433574 L349.507579,366.220742 C349.257539,366.014789 349.010513,365.808407 348.766068,365.596005 L348.68473,365.527641 C348.42092,365.29589 348.161413,365.058121 347.905349,364.819491 L347.685865,364.608379 C347.496076,364.427794 347.3093,364.24592 347.125536,364.059315 L346.906053,363.840464 C346.672367,363.601404 346.442555,363.359335 346.217907,363.113826 L346.184339,363.077709 C345.94635,362.818011 345.714386,362.552724 345.486726,362.284856 L345.304253,362.068155 C345.133831,361.863922 344.966421,361.65711 344.802023,361.448147 L344.618259,361.219407 C344.420724,360.963149 344.227493,360.70818 344.038134,360.448052 C338.809691,353.321838 336.93074,343.493733 341.110395,335.422459 L337.404136,340.11809 C332.658126,346.933441 333.249011,355.801437 336.874793,363.043742 C336.960865,363.217447 337.051671,363.388143 337.140325,363.558838 L337.310317,363.88518 L337.415755,364.073074 L337.604683,364.411026 C337.717438,364.609239 337.832774,364.806592 337.951123,365.003945 L338.148228,365.328998 C338.279057,365.54011 338.412899,365.748642 338.550184,365.956744 L338.721467,366.220742 C338.909535,366.502368 339.103627,366.783564 339.303314,367.0596 L339.320098,367.081099 L339.41822,367.213527 C339.590364,367.451297 339.768533,367.686057 339.948424,367.918238 L340.14725,368.171916 C340.308205,368.373569 340.470881,368.573932 340.63786,368.773435 L340.825067,368.997016 C341.047993,369.259294 341.275654,369.520281 341.507618,369.77611 L341.521389,369.790298 L341.547641,369.819536 C341.774441,370.066765 342.006835,370.308404 342.241812,370.550044 L342.464308,370.774055 C342.64635,370.957219 342.831405,371.137374 343.017751,371.316669 L343.24455,371.53165 C343.494159,371.76684 343.74635,371.997301 344.003275,372.222602 L344.015755,372.232061 L344.147446,372.344711 C344.374245,372.540775 344.604918,372.735548 344.837743,372.926452 L345.123502,373.153903 C345.31286,373.30611 345.505231,373.455737 345.698463,373.602784 L346.00574,373.836255 C346.218768,373.993191 346.433948,374.147548 346.650849,374.298465 L346.885826,374.464861 L346.95038,374.510867 C347.156092,374.652325 347.366538,374.788624 347.576984,374.924922 L347.848111,375.105507 C348.17045,375.309309 348.497954,375.510962 348.82804,375.705736 L349.099597,375.858373 C349.342751,375.998541 349.587626,376.136129 349.835943,376.270708 C349.970216,376.342942 350.107931,376.411306 350.242633,376.48053 C350.41822,376.572112 350.592086,376.664984 350.770255,376.753987 L350.892047,376.812892 L351.107657,376.916943 C351.383518,377.048512 351.6611,377.177931 351.942555,377.30262 L352.119003,377.381733 C352.440912,377.522331 352.765403,377.65734 353.092907,377.786329 L353.330036,377.879631 C353.632579,377.996151 353.940286,378.111381 354.248854,378.219732 L354.36419,378.259719 C354.702453,378.377959 355.04459,378.487599 355.388447,378.59466 L355.636334,378.668614 C355.986647,378.773955 356.332657,378.899934 356.694159,378.966579 C379.649128,383.148833 386.317125,365.18496 386.317125,365.18496 C380.716421,372.47456 370.775536,374.397357 361.357539,372.256569" id="jquery-blue"></path>
        </g>
    </g>
</svg>