<?xml version="1.0" encoding="UTF-8" standalone="no"?>
<svg width="47px" height="52px" viewBox="0 0 47 52" version="1.1" xmlns="http://www.w3.org/2000/svg" xmlns:xlink="http://www.w3.org/1999/xlink">
    <!-- Generator: Sketch 45.1 (43504) - http://www.bohemiancoding.com/sketch -->
    <title>node-blue</title>
    <desc>Created with Sketch.</desc>
    <defs></defs>
    <g id="Real.2017" stroke="none" stroke-width="1" fill="none" fill-rule="evenodd">
        <g id="ABOUT" transform="translate(-242.000000, -429.000000)" fill="#10069F">
            <path d="M271.147418,462.495873 C266.100156,462.495873 264.988967,461.104942 264.618858,458.597825 C264.574961,458.327808 264.346009,458.004905 264.070579,458.004905 L261.604617,458.004905 C261.299491,458.004905 261.053756,458.374674 261.053756,458.678228 C261.053756,461.888335 262.800587,465.777784 271.147418,465.777784 C277.188811,465.777784 280.653208,463.432334 280.653208,459.281467 C280.653208,455.165856 277.87007,454.085788 272.01072,453.310994 C266.088106,452.52889 265.486463,452.133754 265.486463,450.747552 C265.486463,449.604709 265.996009,448.080488 270.381377,448.080488 C274.299374,448.080488 275.743662,448.920637 276.337989,451.559323 C276.389202,451.807412 276.616002,451.985417 276.872066,451.985417 L279.348357,451.985417 C279.500704,451.985417 279.645736,451.923932 279.752465,451.815151 C279.856182,451.698201 279.910407,451.551583 279.897066,451.394217 C279.512324,446.849933 276.491628,444.732363 270.380947,444.732363 C264.94464,444.732363 261.702308,447.025788 261.702308,450.870091 C261.702308,455.039877 264.928717,456.192179 270.146831,456.707705 C276.389202,457.319113 276.874648,458.230636 276.874648,459.457322 C276.874648,461.58822 275.162676,462.495873 271.147418,462.495873 M286.188928,440.520011 L267.191549,429.510797 C265.994718,428.829734 264.426917,428.829734 263.220618,429.510797 L244.074765,440.520011 C242.840063,441.229881 242,442.564057 242,443.991106 L242,465.980297 C242,467.407346 242.857707,468.741952 244.09284,469.455692 L249.140532,472.331287 C251.562167,473.523146 252.233099,473.523146 253.33482,473.523146 C256.92144,473.523146 258.783607,471.35656 258.783607,467.577611 L258.783607,445.868756 C258.784038,445.562192 258.975978,445.106001 258.674296,445.106001 L256.254812,445.106001 C255.948396,445.106001 255.341158,445.562192 255.341158,445.868326 L255.341158,467.577181 C255.341158,469.252319 253.785407,470.919287 250.951056,469.503418 L245.734233,466.488084 C245.552621,466.389192 245.442879,466.190119 245.442879,465.980297 L245.442879,443.991106 C245.442879,443.783864 245.642567,443.575761 245.826761,443.46956 L264.925274,432.479264 C265.103873,432.378223 265.356495,432.378223 265.534233,432.479264 L284.454147,443.466981 C284.635329,443.575761 284.606064,443.777414 284.606064,443.991106 L284.606064,465.980297 C284.606064,466.190119 284.646088,466.394352 284.467488,466.495393 L265.474413,477.492139 C265.311307,477.589741 265.1,477.589741 264.921401,477.492139 L260.051017,474.590315 C259.904264,474.505183 259.727387,474.474655 259.586228,474.553339 C258.232746,475.319963 257.981416,475.421865 256.711854,475.861717 C256.398552,475.970498 255.937637,476.159252 256.887441,476.691117 L263.255908,480.455017 C263.865297,480.807587 264.558177,480.990752 265.25579,480.990752 C265.962441,480.990752 266.65403,480.807587 267.26385,480.455017 L286.189358,469.455692 C287.424922,468.736793 288.048944,467.407346 288.048944,465.980297 L288.048944,443.991106 C288.048513,442.564057 287.424491,441.23332 286.188928,440.520011" id="node-blue"></path>
        </g>
    </g>
</svg>
