<?xml version="1.0" encoding="UTF-8" standalone="no"?>
<svg width="54px" height="54px" viewBox="0 0 54 54" version="1.1" xmlns="http://www.w3.org/2000/svg" xmlns:xlink="http://www.w3.org/1999/xlink">
    <!-- Generator: Sketch 45.1 (43504) - http://www.bohemiancoding.com/sketch -->
    <title>photoshop-blue</title>
    <desc>Created with Sketch.</desc>
    <defs></defs>
    <g id="Real.2017" stroke="none" stroke-width="1" fill="none" fill-rule="evenodd">
        <g id="ABOUT" transform="translate(-559.000000, -248.000000)" fill="#10069F">
            <path d="M601.712282,282.952997 C601.530568,285.426282 600.135996,287.050139 597.848711,287.835282 C594.787854,288.886139 591.743711,288.642282 588.752283,287.453425 C588.262426,287.258425 588.167712,287.011568 588.329283,286.512282 C588.623712,285.60114 588.839283,284.664282 589.066426,283.818283 C590.33114,284.189425 591.533711,284.652711 592.779568,284.871711 C593.659425,285.026425 594.610425,284.935568 595.504854,284.795425 C596.306711,284.669425 596.883568,284.12514 597.015139,283.264568 C597.148854,282.389854 596.885282,281.63214 596.112997,281.166711 C595.499282,280.797283 594.822997,280.532854 594.174568,280.222997 C593.131854,279.724569 592.020568,279.333711 591.058854,278.71014 C587.27414,276.255712 588.506283,271.688855 591.031854,269.968998 C592.38314,269.049284 593.878425,268.641284 595.47914,268.585141 C597.361854,268.519141 599.174711,268.843998 600.955425,269.709284 L600.014711,273.047426 C599.268996,272.783426 598.574711,272.440569 597.841854,272.304284 C596.972282,272.142284 596.060282,272.051855 595.182568,272.123426 C594.005711,272.219855 593.316568,273.031998 593.316568,274.039141 C593.316568,274.635712 593.542854,275.140569 594.040425,275.429855 C594.754425,275.84514 595.51214,276.187569 596.262997,276.53514 C597.075568,276.910997 597.933568,277.199855 598.715711,277.628855 C600.802853,278.77314 601.889282,280.54314 601.712282,282.952997 M582.722284,277.486997 C580.340712,278.336426 577.857141,278.383997 575.285713,278.184712 L575.285713,287.857139 L570.571428,287.857139 L570.571428,287.256282 C570.571428,279.158426 570.534142,271.061427 570.511428,262.963999 C570.508856,262.29157 570.61557,261.966713 571.373285,261.88957 C574.944141,261.524427 578.494855,261.113856 582.045569,261.94657 C585.862426,262.840999 588.06314,265.364427 588.230283,268.850855 C588.437283,273.168283 586.539998,276.125426 582.722284,277.486997 M612.999995,274.98414 L612.999995,248.979286 C612.999995,248.081 613.009852,248 612.13771,248 L560.062428,248 C559.214286,248 559,248.081429 559,248.936857 L559,301.012138 C559,301.876995 559.108,301.878281 559.946714,301.878281 C577.327427,301.878709 594.759997,301.874424 612.14071,301.894138 C612.814852,301.894995 612.995709,301.715424 612.993995,301.054567 C612.970852,292.364425 612.999995,283.673425 612.999995,274.98414 M580.105427,265.406856 C578.527427,265.010427 576.947284,265.137713 575.279713,265.397427 C575.279713,268.313855 575.273713,271.151855 575.29557,273.990283 C575.296427,274.135569 575.51457,274.388426 575.655999,274.407712 C577.474427,274.653283 579.282998,274.672998 580.983569,273.844141 C582.742855,272.986998 583.638998,271.194712 583.406712,269.090427 C583.195855,267.174284 582.061427,265.898427 580.105427,265.406856" id="photoshop-blue"></path>
        </g>
    </g>
</svg>