<?xml version="1.0" encoding="UTF-8" standalone="no"?>
<svg width="60px" height="54px" viewBox="0 0 60 54" version="1.1" xmlns="http://www.w3.org/2000/svg" xmlns:xlink="http://www.w3.org/1999/xlink">
    <!-- Generator: Sketch 45.1 (43504) - http://www.bohemiancoding.com/sketch -->
    <title>react-white</title>
    <desc>Created with Sketch.</desc>
    <defs></defs>
    <g id="Real.2017" stroke="none" stroke-width="1" fill="none" fill-rule="evenodd">
        <g id="ABOUT" transform="translate(-235.000000, -586.000000)" fill="#FFFFFF">
            <path d="M284.570056,619.062607 C283.615868,619.444282 282.566261,619.778248 281.516655,620.064504 C280.753305,617.679035 279.799117,615.150437 278.654092,612.621839 C279.799117,610.093242 280.801014,607.612353 281.516655,605.226884 C288.100074,607.13526 292.059953,609.997823 292.059953,612.669549 C292.059953,614.91189 289.292808,617.29736 284.570056,619.062607 M280.276211,626.505272 C281.086793,631.514758 280.419339,635.045253 278.462777,636.190278 C277.985683,636.476534 277.413647,636.619662 276.792948,636.619662 C273.930385,636.619662 270.352181,634.281902 266.773976,630.751407 C268.443805,628.938451 270.113634,626.839238 271.73623,624.549187 C274.502898,624.31064 277.126914,623.881255 279.608279,623.356452 C279.894059,624.453768 280.085373,625.503375 280.276211,626.505272 M251.268425,636.190278 C249.312817,635.045253 248.644408,631.514758 249.455468,626.505272 C249.598596,625.503375 249.837143,624.453768 250.123877,623.356452 C252.604765,623.928965 255.228781,624.31064 257.995926,624.549187 C259.617568,626.839238 261.287397,628.890741 262.957225,630.751407 C259.427207,634.234193 255.849003,636.619662 252.938253,636.619662 C252.318031,636.619662 251.745519,636.476534 251.268425,636.190278 M237.671249,612.669549 C237.671249,610.427207 240.390684,608.041738 245.161623,606.276491 C246.115811,605.894815 247.165894,605.56085 248.215501,605.274593 C248.978374,607.660063 249.932562,610.188661 251.078064,612.717258 C249.932562,615.245856 248.931142,617.726744 248.215501,620.112214 C241.631605,618.203838 237.671249,615.341275 237.671249,612.669549 M249.455468,598.833826 C248.644408,593.82434 249.312817,590.293845 251.268425,589.14882 C251.745519,588.862563 252.318031,588.719435 252.938253,588.719435 C255.800817,588.719435 259.379021,591.057195 262.957225,594.58769 C261.287397,596.400647 259.617568,598.49986 257.995926,600.789911 C255.228781,601.028458 252.604765,601.457842 250.123877,601.982646 C249.837143,600.88533 249.646783,599.835723 249.455468,598.833826 M275.457085,606.562747 L273.740024,603.700184 C275.552981,603.93873 277.270042,604.224987 278.892638,604.606662 C278.367835,606.181072 277.795322,607.8509 277.079682,609.520729 C276.554401,608.518832 276.030075,607.516935 275.457085,606.562747 M264.865601,596.543775 C266.011103,597.784219 267.107942,599.120082 268.158026,600.503654 C267.06071,600.455945 265.963394,600.408236 264.865601,600.408236 C263.768285,600.408236 262.671446,600.455945 261.57413,600.503654 C262.623737,599.120082 263.721053,597.784219 264.865601,596.543775 M252.652474,609.47302 C251.936833,607.803191 251.363844,606.181072 250.839517,604.558953 C252.46116,604.177277 254.179175,603.891021 255.992131,603.652474 C255.419142,604.558953 254.799397,605.51314 254.274593,606.515038 C253.702081,607.516935 253.1768,608.518832 252.652474,609.47302 M255.992131,621.638914 C254.179175,621.400367 252.46116,621.114111 250.839517,620.732436 C251.363844,619.158026 251.936833,617.488197 252.652474,615.818369 C253.1768,616.772556 253.702081,617.774453 254.274593,618.728641 C254.846629,619.778248 255.419142,620.684726 255.992131,621.638914 M264.865601,628.795322 C263.721053,627.554878 262.623737,626.219015 261.57413,624.835443 C262.671446,624.883153 263.768285,624.930862 264.865601,624.930862 C265.963394,624.930862 267.06071,624.883153 268.158026,624.835443 C267.107942,626.219015 266.011103,627.554878 264.865601,628.795322 M277.079682,615.866078 C277.795322,617.535907 278.367835,619.158026 278.892638,620.780145 C277.270042,621.16182 275.552981,621.448076 273.740024,621.686623 C274.312537,620.780145 274.932759,619.825957 275.457085,618.82406 C276.030075,617.822163 276.554401,616.820266 277.079682,615.866078 M273.119802,617.440488 C272.260556,618.967188 271.259136,620.493889 270.209052,622.020589 C268.443805,622.163717 266.679035,622.211427 264.865601,622.211427 C263.005412,622.211427 261.240164,622.163717 259.522626,622.020589 C258.47302,620.493889 257.518832,618.967188 256.660063,617.440488 C255.753584,615.866078 254.894815,614.243959 254.130988,612.669549 C254.894815,611.095139 255.753584,609.47302 256.660063,607.89861 C257.518832,606.371909 258.520252,604.845209 259.570336,603.318508 C261.335583,603.17538 263.10083,603.127671 264.913787,603.127671 C266.773976,603.127671 268.539224,603.17538 270.257239,603.318508 C271.306368,604.845209 272.260556,606.371909 273.119802,607.89861 C274.025804,609.47302 274.884573,611.095139 275.6484,612.669549 C274.83734,614.243959 274.025804,615.818369 273.119802,617.440488 M278.462777,589.14882 C280.419339,590.293845 281.086793,593.82434 280.276211,598.833826 C280.132605,599.835723 279.894059,600.88533 279.608279,601.982646 C277.126914,601.410133 274.502898,601.028458 271.73623,600.789911 C270.113634,598.49986 268.443805,596.448356 266.773976,594.58769 C270.304948,591.104905 273.883153,588.719435 276.792948,588.719435 C277.413647,588.719435 277.985683,588.862563 278.462777,589.14882 M285.524244,603.700184 C284.474637,603.318508 283.377321,602.936833 282.232296,602.602868 C282.518075,601.457842 282.756622,600.312817 282.947937,599.215501 C283.949357,592.917861 282.852041,588.480888 279.799117,586.76335 C278.892638,586.238547 277.890741,586 276.745716,586 C273.406059,586 269.159446,588.480888 264.865601,592.631605 C260.571756,588.480888 256.326097,586 252.98644,586 C251.840937,586 250.839517,586.238547 249.932562,586.76335 C246.879638,588.528598 245.781845,592.965571 246.784219,599.215501 C246.97458,600.312817 247.213127,601.457842 247.49986,602.602868 C246.354358,602.936833 245.257519,603.270799 244.207435,603.700184 C238.243761,605.990234 235,609.139054 235,612.669549 C235,616.200044 238.291948,619.348863 244.207435,621.638914 C245.257519,622.020589 246.354358,622.402264 247.49986,622.73623 C247.213127,623.881255 246.97458,625.026281 246.784219,626.123597 C245.781845,632.421236 246.879638,636.858209 249.932562,638.575747 C250.839517,639.100551 251.840937,639.339098 252.98644,639.339098 C256.373329,639.339098 260.619942,636.858209 264.865601,632.707492 C269.159446,636.858209 273.406059,639.339098 276.745716,639.339098 C277.890741,639.339098 278.892638,639.100551 279.799117,638.575747 C282.852041,636.8105 283.949357,632.373527 282.947937,626.123597 C282.756622,625.026281 282.518075,623.881255 282.232296,622.73623 C283.377321,622.402264 284.474637,622.068299 285.524244,621.638914 C291.487917,619.348863 294.732156,616.200044 294.732156,612.669549 C294.732156,609.139054 291.487917,605.990234 285.524244,603.700184 M264.865601,607.230678 C267.869384,607.230678 270.304948,609.665766 270.304948,612.669549 C270.304948,615.673332 267.869384,618.108419 264.865601,618.108419 C261.861818,618.108419 259.427207,615.673332 259.427207,612.669549 C259.427207,609.665766 261.861818,607.230678 264.865601,607.230678" id="react-white"></path>
        </g>
    </g>
</svg>