<?xml version="1.0" encoding="UTF-8" standalone="no"?>
<svg width="66px" height="49px" viewBox="0 0 66 49" version="1.1" xmlns="http://www.w3.org/2000/svg" xmlns:xlink="http://www.w3.org/1999/xlink">
    <!-- Generator: Sketch 45.1 (43504) - http://www.bohemiancoding.com/sketch -->
    <title>sass-blue</title>
    <desc>Created with Sketch.</desc>
    <defs></defs>
    <g id="Real.2017" stroke="none" stroke-width="1" fill="none" fill-rule="evenodd">
        <g id="ABOUT" transform="translate(-232.000000, -329.000000)" fill="#10069F">
            <path d="M278.84441,365.975686 C278.617351,366.105881 278.369982,366.19962 278.137195,366.31992 C277.924197,366.430325 277.853892,366.318878 277.847643,366.135565 C277.843477,366.011099 277.861704,365.880905 277.896075,365.760085 C278.329882,364.230042 279.128234,362.923933 280.316126,361.861548 L280.39945,361.818845 C280.964493,363.399403 280.311439,365.135152 278.84441,365.975686 M268.583541,368.499892 L271.796215,364.748736 C271.930054,366.141814 269.562081,368.922763 268.583541,368.499892 M259.644925,357.111541 C259.522543,357.853128 259.369434,358.595235 259.152791,359.313907 C258.403914,361.801659 257.442039,364.212336 256.402047,366.590724 C256.20988,367.030781 255.930223,367.4323 255.68702,367.849442 C255.649524,367.914018 255.593801,367.969741 255.53964,368.023381 C255.238631,368.320745 254.953245,368.305122 254.801179,367.916101 C254.624114,367.464067 254.515272,366.980265 254.421532,366.501671 C254.358518,366.180352 254.373621,365.842888 254.353831,365.513757 C254.374141,363.173385 255.088127,361.046532 256.299454,359.066538 C256.798879,358.24996 257.34257,357.471919 258.173209,356.955308 C258.42839,356.796471 258.714818,356.668881 259.003849,356.58764 C259.446509,356.463174 259.718355,356.667839 259.644925,357.111541 M246.543218,367.203678 C246.369799,369.525823 245.317309,371.408432 243.597183,372.933267 C242.629579,373.790466 241.519803,374.400816 240.227235,374.615376 C239.758535,374.692972 239.2789,374.71172 238.824262,374.51747 C238.175894,374.240417 238.030597,373.664958 238.018099,373.052004 C237.99883,372.075026 238.340981,371.191789 238.810201,370.351255 C239.422634,369.25554 240.320454,368.420214 241.279204,367.64009 C242.789457,366.410535 244.427822,365.370023 246.105765,364.387837 L246.232314,364.33576 C246.491661,365.293989 246.615085,366.240241 246.543218,367.203678 M232,349.391543 C232,349.75765 232.107801,349.99929 232.168211,350.234161 C232.561918,351.761599 233.408181,353.072395 234.412239,354.268099 C235.842293,355.972081 237.593666,357.343808 239.387742,358.633773 C240.943824,359.752401 242.531673,360.846033 244.094004,361.95633 C244.362204,362.146934 244.615822,362.366181 244.906937,362.60001 C244.656443,362.735412 244.448132,362.85467 244.231489,362.964554 C242.169733,364.010274 240.186093,365.182543 238.357645,366.602702 C237.255681,367.458859 236.190172,368.368657 235.437649,369.55759 C234.226842,371.469884 233.798243,373.507163 234.700749,375.682449 C234.964263,376.317796 235.366302,376.866695 235.933429,377.272381 C236.117263,377.403616 236.32349,377.533811 236.538571,377.584847 C237.089553,377.71452 237.650951,377.799407 238.208703,377.902 L239.78822,377.900958 C241.534906,377.745246 243.124838,377.146873 244.561662,376.155314 C246.807252,374.605482 248.320109,372.527582 248.970559,369.860683 C249.443425,367.922351 249.462694,365.981936 248.905462,364.052457 C248.853905,363.87331 248.788808,363.697808 248.721107,363.524389 C248.653406,363.35097 248.573727,363.182239 248.479988,362.966116 L252.06085,360.906964 L252.11449,360.952792 C252.049393,361.16579 251.98013,361.378267 251.921282,361.593348 C251.495807,363.147347 251.213025,364.728426 251.314577,366.341272 C251.422898,368.059836 251.902534,369.668516 252.908675,371.104298 C253.722129,372.265631 255.660461,372.308855 256.52495,371.143356 C256.831688,370.729339 257.129052,370.296573 257.352465,369.834644 C257.936256,368.629045 258.476822,367.402095 259.034575,366.183476 L259.13196,365.960584 C259.09186,366.537605 259.04499,367.044321 259.023638,367.551558 C258.990309,368.343659 259.036658,369.131074 259.307462,369.884638 C259.539207,370.52936 259.933436,371.011079 260.671897,371.095966 C261.177051,371.153772 261.579612,370.922547 261.950926,370.629349 C262.531071,370.171587 263.002374,369.606023 263.352337,368.963384 C264.342334,367.145351 265.35889,365.338255 266.256189,363.474395 C267.226917,361.458467 268.075784,359.383691 268.977249,357.333392 L269.126191,356.96989 C269.339189,357.806779 269.48761,358.626482 269.761018,359.402439 C270.078692,360.302863 270.471879,361.181934 270.899957,362.036529 C271.10254,362.440131 271.079105,362.702082 270.798406,363.040587 C269.623533,364.457101 268.46897,365.8908 267.313366,367.322936 C267.057665,367.639048 266.803005,367.960888 266.590007,368.306163 C266.461375,368.516036 266.375968,368.771738 266.340034,369.016503 C266.270771,369.484161 266.559802,369.935154 267.060269,370.042955 C267.517511,370.141381 268.004958,370.177836 268.470533,370.143465 C270.083379,370.024727 271.547804,369.458643 272.842455,368.499372 C274.519878,367.256798 275.058362,365.561148 274.652155,363.55147 C274.542272,363.006216 274.348022,362.476065 274.15898,361.950601 C274.074093,361.713648 274.068364,361.54752 274.223035,361.32671 C275.564036,359.411813 276.709745,357.380262 277.775255,355.301841 C277.817438,355.220079 277.860662,355.138317 277.934613,355.050827 C278.279888,356.847507 278.799623,358.579091 279.730773,360.150275 C279.255824,360.608038 278.785562,361.023097 278.360088,361.480339 C277.42321,362.487522 276.610798,363.581154 276.186885,364.914864 C276.004613,365.489801 275.864524,366.074113 275.946286,366.688109 C276.071794,367.641652 276.852959,368.261377 277.791399,368.044213 C279.797953,367.579679 281.530578,366.633948 282.796587,364.958609 C283.648578,363.830606 283.726174,362.572409 283.369441,361.254322 C283.271535,360.896028 283.155402,360.543462 283.030416,360.132569 C283.525674,359.978939 284.008435,359.794584 284.50786,359.680534 C287.100808,359.088932 289.665635,359.192045 292.164323,360.128402 C293.623019,360.675218 294.801538,361.590223 295.50042,363.029651 C296.353974,364.789356 295.88215,366.458967 294.223475,367.571347 C294.068804,367.674982 293.892261,367.756744 293.763629,367.886417 C293.684992,367.966096 293.637601,368.125454 293.65687,368.235338 C293.667806,368.299393 293.837059,368.379593 293.934965,368.378551 C294.479697,368.374385 294.921837,368.088479 295.34627,367.79476 C296.409697,367.058902 297.185655,366.068905 297.352824,364.765401 L297.386154,364.667495 L297.345533,363.818628 C297.329389,363.769675 297.357511,363.721243 297.353866,363.684268 C297.127848,361.786036 296.113896,360.313799 294.639055,359.159757 C292.930907,357.823964 290.913937,357.274024 288.780835,357.187054 C287.042481,357.116228 285.333812,357.374534 283.695448,357.969782 C283.228311,358.139034 282.76534,358.339534 282.295599,358.528576 C282.232585,358.414525 282.164884,358.305162 282.109682,358.192154 C281.626922,357.20476 281.04261,356.261113 280.913457,355.128943 C280.8218,354.324864 280.709313,353.521826 280.900438,352.726599 C281.084272,351.961578 281.323829,351.209576 281.549326,350.45497 C281.665459,350.06647 281.583697,349.848786 281.212904,349.673805 C281.083751,349.612874 280.943141,349.559754 280.803573,349.539444 C279.892213,349.407167 278.993352,349.482679 278.110635,349.739422 C277.798169,349.830558 277.57111,350.005539 277.501847,350.351335 C277.462268,350.549751 277.381548,350.739835 277.325304,350.935647 C277.094599,351.749622 276.931076,352.579219 276.558199,353.354656 C275.623925,355.299758 274.557374,357.171431 273.465825,359.029563 C273.347609,359.230062 273.223143,359.426916 273.074201,359.670119 C272.690909,358.868122 272.282099,358.148408 272.158155,357.30475 C272.018065,356.350686 271.907661,355.398185 272.145135,354.451413 C272.321678,353.745239 272.552383,353.052085 272.76486,352.355285 C272.86589,352.024071 272.81902,351.850132 272.519053,351.675671 C272.367507,351.58766 272.196171,351.509543 272.025356,351.484025 C271.080146,351.343936 270.148997,351.417366 269.237116,351.712126 C268.954335,351.803782 268.805913,351.986575 268.719464,352.27821 C268.465325,353.138534 268.248682,354.019688 267.891949,354.837829 C266.447314,358.149971 264.961017,361.444927 263.476281,364.739362 C263.166419,365.427308 262.803438,366.091299 262.453996,366.761018 C262.365464,366.930791 262.236311,367.080254 262.125907,367.239612 C262.037375,367.134936 262.003003,367.063069 262.003524,366.991201 C262.006128,366.56781 261.955613,366.131919 262.036333,365.722589 C262.280578,364.484181 262.561797,363.252544 262.858119,362.025593 C263.102884,361.012161 263.387749,360.008103 263.659074,359.001441 C263.75021,358.664498 263.751772,358.349428 263.509611,358.066126 C263.102884,357.591698 262.252976,357.487542 261.748864,357.853128 L261.525972,357.979677 L261.569196,357.61982 C261.675435,356.849591 261.696787,356.081965 261.485351,355.323193 C261.221838,354.377462 260.546911,353.83325 259.565767,353.863455 C259.108525,353.877516 258.628369,353.955633 258.204977,354.122282 C256.42444,354.820123 255.055318,356.055926 253.889819,357.542745 C253.784101,357.677626 253.644533,357.800529 253.495591,357.883333 C251.988983,358.718659 250.477688,359.54357 248.966914,360.371605 L247.285325,361.29286 C246.834332,360.862698 246.424481,360.416392 245.959427,360.037787 C244.539268,358.879579 243.096195,357.750014 241.666142,356.604825 C240.39857,355.589831 239.170578,354.532654 238.231097,353.188528 C237.532214,352.188637 237.081742,351.094484 237.038517,349.85816 C236.983836,348.282809 237.430662,346.843382 238.232659,345.503423 C239.25859,343.789025 240.657917,342.413132 242.196292,341.166913 C243.823721,339.849347 245.583947,338.730718 247.408229,337.709474 C249.960556,336.280983 252.585793,335.016536 255.400593,334.181731 C258.286739,333.325574 261.215068,332.835522 264.235574,333.177152 C265.423467,333.311513 266.575946,333.583358 267.634686,334.164025 C268.445535,334.608247 269.110568,335.189955 269.419909,336.099232 C269.725084,336.993927 269.71571,337.900599 269.504275,338.809355 C269.074634,340.649781 268.066931,342.166804 266.798839,343.522387 C264.718855,345.744542 262.18163,347.257399 259.325168,348.25677 C257.676909,348.833271 255.981259,349.195211 254.239781,349.341549 C252.818581,349.460807 251.427064,349.334779 250.081377,348.840561 C249.190327,348.512993 248.41437,348.012005 247.790479,347.285001 C247.679033,347.154806 247.53634,347.013676 247.32855,347.135538 C247.124926,347.255316 247.088992,347.449045 247.157214,347.645378 C247.271264,347.971385 247.376461,348.310931 247.554046,348.602566 C248.000352,349.334258 248.651323,349.86493 249.367912,350.320089 C250.744326,351.195515 252.282701,351.489754 253.877841,351.557976 C256.298412,351.662652 258.660136,351.301233 260.98853,350.651824 C264.312649,349.724841 267.202962,348.087518 269.52094,345.504464 C271.450939,343.353655 272.829436,340.926314 273.124717,337.995381 C273.268972,336.564806 273.115343,335.163396 272.445623,333.858328 C271.71914,332.444419 270.564056,331.39297 269.182956,330.668569 C267.171715,329.613996 265.001116,329 262.760734,329 L260.516185,329 C257.802937,329 255.179783,329.77752 252.630059,330.705024 C250.70006,331.407552 248.807556,332.236629 246.970255,333.154238 C242.969126,335.153501 239.242966,337.564177 236.18236,340.878923 C234.657525,342.530307 233.366519,344.352505 232.623891,346.498107 C232.406727,347.126164 232.200499,347.799528 232.045308,348.448937" id="sass-blue"></path>
        </g>
    </g>
</svg>