<?xml version="1.0" encoding="UTF-8" standalone="no"?>
<svg width="60px" height="54px" viewBox="0 0 60 54" version="1.1" xmlns="http://www.w3.org/2000/svg" xmlns:xlink="http://www.w3.org/1999/xlink">
    <!-- Generator: Sketch 45.1 (43504) - http://www.bohemiancoding.com/sketch -->
    <title>sketch-blue</title>
    <desc>Created with Sketch.</desc>
    <defs></defs>
    <g id="Real.2017" stroke="none" stroke-width="1" fill="none" fill-rule="evenodd">
        <g id="ABOUT" transform="translate(-655.000000, -249.000000)">
            <g id="sketch-blue" transform="translate(655.000000, 249.000000)">
                <polygon id="Fill-4" fill="#FFFFFF" points="13.068 1.77218182 29.9454545 0 46.8229091 1.77218182 59.8909091 19.17 29.9454545 53.7643636 0 19.17"></polygon>
                <polygon id="Fill-6" fill="#10069F" points="12.1303636 19 29.9454545 53.5943636 0 19"></polygon>
                <polygon id="Fill-9" fill="#10069F" points="47.8150909 19 30 53.5943636 59.9454545 19"></polygon>
                <polygon id="Fill-11" fill-opacity="0.62" fill="#10069F" points="12 19 48 19 30 53.5943636"></polygon>
                <polygon id="Fill-13" fill-opacity="0.38" fill="#10069F" points="29.8150909 0 12.9376364 1.77218182 12 19.17"></polygon>
                <polygon id="Fill-15" fill-opacity="0.38" fill="#10069F" points="30 0 47.0526316 1.77218182 48 19.17"></polygon>
                <polygon id="Fill-17" fill-opacity="0.62" fill="#10069F" points="60.068 19.3978182 47 2 47.9376364 19.3978182"></polygon>
                <polygon id="Fill-19" fill-opacity="0.17" fill="#10069F" points="30 0 12 19.17 48 19.17"></polygon>
                <polygon id="Fill-21" fill-opacity="0.62" fill="#10069F" points="0 19.3978182 13.068 2 12.1303636 19.3978182"></polygon>
            </g>
        </g>
    </g>
</svg>